<?xml version="1.0" encoding="UTF-8"?>
<!DOCTYPE svg PUBLIC "-//W3C//DTD SVG 1.1//EN" "http://www.w3.org/Graphics/SVG/1.1/DTD/svg11.dtd">
<svg xmlns="http://www.w3.org/2000/svg" version="1.1" width="38px" height="38px" style="shape-rendering:geometricPrecision; text-rendering:geometricPrecision; image-rendering:optimizeQuality; fill-rule:evenodd; clip-rule:evenodd" xmlns:xlink="http://www.w3.org/1999/xlink">
<g><path style="opacity:0.978" fill="#eec488" d="M 26.5,5.5 C 25.6029,10.679 23.1029,11.679 19,8.5C 18.5172,9.44802 18.3505,10.448 18.5,11.5C 17.8423,10.6016 17.1757,9.60164 16.5,8.5C 16.212,12.6275 17.5453,16.2942 20.5,19.5C 17.5314,20.3287 14.5314,20.4954 11.5,20C 10.2899,18.9609 9.2899,17.7942 8.5,16.5C 10.4807,14.8564 12.4807,13.1897 14.5,11.5C 13.0065,10.8589 12.0065,9.85892 11.5,8.5C 12.8333,8.16667 12.8333,7.83333 11.5,7.5C 12.1098,6.60895 12.4431,5.60895 12.5,4.5C 15.0667,4.14547 17.5667,3.4788 20,2.5C 22.2527,3.3773 24.4194,4.3773 26.5,5.5 Z"/></g>
<g><path style="opacity:0.686" fill="#bf6402" d="M 12.5,4.5 C 12.4431,5.60895 12.1098,6.60895 11.5,7.5C 10.5,7.5 9.5,7.5 8.5,7.5C 7.83333,7.5 7.5,7.83333 7.5,8.5C 3.78963,11.6012 3.78963,14.9345 7.5,18.5C 6.5,19.1667 5.5,19.8333 4.5,20.5C 1.28231,16.3751 0.782315,12.0417 3,7.5C 3.41862,6.32791 4.08529,5.32791 5,4.5C 7.28843,4.73745 9.78843,4.73745 12.5,4.5 Z"/></g>
<g><path style="opacity:0.981" fill="#f2c797" d="M 26.5,5.5 C 27.5,5.5 28.5,5.5 29.5,5.5C 29.5,8.83333 29.5,12.1667 29.5,15.5C 27.6316,16.2632 25.9649,17.2632 24.5,18.5C 20.8871,17.6365 18.8871,15.3032 18.5,11.5C 18.3505,10.448 18.5172,9.44802 19,8.5C 23.1029,11.679 25.6029,10.679 26.5,5.5 Z"/></g>
<g><path style="opacity:0.931" fill="#f5e8b7" d="M 8.5,7.5 C 9.5,7.5 10.5,7.5 11.5,7.5C 11.5,7.83333 11.5,8.16667 11.5,8.5C 12.0065,9.85892 13.0065,10.8589 14.5,11.5C 12.4807,13.1897 10.4807,14.8564 8.5,16.5C 6.15592,14.2821 5.82258,11.6154 7.5,8.5C 8.16667,8.5 8.5,8.16667 8.5,7.5 Z"/></g>
<g><path style="opacity:0.931" fill="#4ba176" d="M 29.5,15.5 C 29.5,12.1667 29.5,8.83333 29.5,5.5C 30.9187,4.54885 32.5853,4.21552 34.5,4.5C 34.6458,8.51914 34.9791,12.5191 35.5,16.5C 33.2646,16.7947 31.2646,16.4614 29.5,15.5 Z"/></g>
<g><path style="opacity:0.699" fill="#b46607" d="M 18.5,11.5 C 18.8871,15.3032 20.8871,17.6365 24.5,18.5C 28.9719,22.965 28.3052,26.2983 22.5,28.5C 22.5,27.5 22.5,26.5 22.5,25.5C 22.8039,24.8501 23.1373,24.1835 23.5,23.5C 22.4756,22.1482 21.4756,20.8149 20.5,19.5C 17.5453,16.2942 16.212,12.6275 16.5,8.5C 17.1757,9.60164 17.8423,10.6016 18.5,11.5 Z"/></g>
<g><path style="opacity:0.705" fill="#be6100" d="M 7.5,18.5 C 11.0987,22.0763 15.432,24.4096 20.5,25.5C 19.8902,26.391 19.5569,27.391 19.5,28.5C 13.7403,27.122 8.74032,24.4554 4.5,20.5C 5.5,19.8333 6.5,19.1667 7.5,18.5 Z"/></g>
<g><path style="opacity:0.626" fill="#845200" d="M 20.5,25.5 C 21.1667,25.5 21.8333,25.5 22.5,25.5C 22.5,26.5 22.5,27.5 22.5,28.5C 23.1495,30.4352 23.4828,32.4352 23.5,34.5C 18.6687,34.8379 17.3354,32.8379 19.5,28.5C 19.5569,27.391 19.8902,26.391 20.5,25.5 Z"/></g>
</svg>
