<?xml version="1.0" encoding="UTF-8"?>
<!DOCTYPE svg PUBLIC "-//W3C//DTD SVG 1.1//EN" "http://www.w3.org/Graphics/SVG/1.1/DTD/svg11.dtd">
<svg xmlns="http://www.w3.org/2000/svg" version="1.1" width="38px" height="38px" style="shape-rendering:geometricPrecision; text-rendering:geometricPrecision; image-rendering:optimizeQuality; fill-rule:evenodd; clip-rule:evenodd" xmlns:xlink="http://www.w3.org/1999/xlink">
<g><path style="opacity:0.43" fill="#0c0d09" d="M 16.5,-0.5 C 17.5,-0.5 18.5,-0.5 19.5,-0.5C 20.0906,0.151487 20.7573,0.818153 21.5,1.5C 21.2907,2.08605 20.9574,2.58605 20.5,3C 23.0432,4.38187 25.0432,6.2152 26.5,8.5C 26.5,9.16667 26.5,9.83333 26.5,10.5C 23.2944,5.51422 18.961,4.34755 13.5,7C 11.84,8.48765 10.84,10.321 10.5,12.5C 10.5674,13.9587 10.2341,15.2921 9.5,16.5C 12.1667,17.1667 14.8333,17.8333 17.5,18.5C 14.1667,18.5 10.8333,18.5 7.5,18.5C 7.16667,18.5 6.83333,18.5 6.5,18.5C 6.80155,15.9407 6.46822,13.6074 5.5,11.5C 4.16667,11.5 2.83333,11.5 1.5,11.5C 1.8222,17.358 1.48886,23.0247 0.5,28.5C 0.166667,28.5 -0.166667,28.5 -0.5,28.5C -0.5,20.8333 -0.5,13.1667 -0.5,5.5C 0.89793,3.89122 2.5646,3.05789 4.5,3C 6.89356,4.95217 8.39356,7.45217 9,10.5C 10.1532,7.84798 11.9866,5.84798 14.5,4.5C 15.3219,2.8614 15.9886,1.19474 16.5,-0.5 Z"/></g>
<g><path style="opacity:1" fill="#eedc47" d="M 5.5,7.5 C 4.16667,7.5 2.83333,7.5 1.5,7.5C 1.61998,6.41383 2.28665,5.74716 3.5,5.5C 4.71335,5.74716 5.38002,6.41383 5.5,7.5 Z"/></g>
<g><path style="opacity:1" fill="#f3e047" d="M 26.5,10.5 C 26.5,11.1667 26.5,11.8333 26.5,12.5C 21.1667,12.5 15.8333,12.5 10.5,12.5C 10.84,10.321 11.84,8.48765 13.5,7C 18.961,4.34755 23.2944,5.51422 26.5,10.5 Z"/></g>
<g><path style="opacity:0.439" fill="#0c0d0b" d="M 37.5,5.5 C 37.5,13.1667 37.5,20.8333 37.5,28.5C 37.1667,28.5 36.8333,28.5 36.5,28.5C 35.5111,23.0247 35.1778,17.358 35.5,11.5C 34.1667,11.5 32.8333,11.5 31.5,11.5C 30.5318,13.6074 30.1984,15.9407 30.5,18.5C 30.1667,18.5 29.8333,18.5 29.5,18.5C 26.1667,18.5 22.8333,18.5 19.5,18.5C 22.1667,17.8333 24.8333,17.1667 27.5,16.5C 26.7659,15.2921 26.4326,13.9587 26.5,12.5C 26.5,11.8333 26.5,11.1667 26.5,10.5C 26.5,9.83333 26.5,9.16667 26.5,8.5C 27.2679,9.26253 27.7679,10.2625 28,11.5C 28.312,7.53789 30.1454,4.53789 33.5,2.5C 34.8518,3.52435 36.1851,4.52435 37.5,5.5 Z"/></g>
<g><path style="opacity:1" fill="#eedb44" d="M 35.5,7.5 C 34.1667,7.5 32.8333,7.5 31.5,7.5C 31.62,6.41383 32.2867,5.74716 33.5,5.5C 34.7133,5.74716 35.38,6.41383 35.5,7.5 Z"/></g>
<g><path style="opacity:1" fill="#537354" d="M 1.5,7.5 C 2.83333,7.5 4.16667,7.5 5.5,7.5C 6.90531,9.45257 6.23864,10.4526 3.5,10.5C 0.761361,10.4526 0.0946942,9.45257 1.5,7.5 Z"/></g>
<g><path style="opacity:1" fill="#517153" d="M 31.5,7.5 C 32.8333,7.5 34.1667,7.5 35.5,7.5C 36.9053,9.45257 36.2386,10.4526 33.5,10.5C 30.7614,10.4526 30.0947,9.45257 31.5,7.5 Z"/></g>
<g><path style="opacity:1" fill="#364345" d="M 5.5,11.5 C 6.46822,13.6074 6.80155,15.9407 6.5,18.5C 6.1778,24.358 6.51114,30.0247 7.5,35.5C 7.5,35.8333 7.5,36.1667 7.5,36.5C 6.83333,36.5 6.16667,36.5 5.5,36.5C 5.5,28.1667 5.5,19.8333 5.5,11.5 Z"/></g>
<g><path style="opacity:1" fill="#b4c7cb" d="M 5.5,11.5 C 5.5,19.8333 5.5,28.1667 5.5,36.5C 4.16667,36.5 2.83333,36.5 1.5,36.5C 1.80155,33.9407 1.46822,31.6074 0.5,29.5C 0.5,29.1667 0.5,28.8333 0.5,28.5C 1.48886,23.0247 1.8222,17.358 1.5,11.5C 2.83333,11.5 4.16667,11.5 5.5,11.5 Z"/></g>
<g><path style="opacity:1" fill="#454a4b" d="M 31.5,11.5 C 31.5,11.8333 31.5,12.1667 31.5,12.5C 31.5,20.1667 31.5,27.8333 31.5,35.5C 31.5,35.8333 31.5,36.1667 31.5,36.5C 30.8333,36.5 30.1667,36.5 29.5,36.5C 29.5,36.1667 29.5,35.8333 29.5,35.5C 30.4889,30.0247 30.8222,24.358 30.5,18.5C 30.1984,15.9407 30.5318,13.6074 31.5,11.5 Z"/></g>
<g><path style="opacity:1" fill="#90aaae" d="M 31.5,12.5 C 31.5,12.1667 31.5,11.8333 31.5,11.5C 32.8333,11.5 34.1667,11.5 35.5,11.5C 35.1778,17.358 35.5111,23.0247 36.5,28.5C 36.5,28.8333 36.5,29.1667 36.5,29.5C 35.5318,31.6074 35.1984,33.9407 35.5,36.5C 34.1667,36.5 32.8333,36.5 31.5,36.5C 31.5,36.1667 31.5,35.8333 31.5,35.5C 32.5,35.5 33.5,35.5 34.5,35.5C 35.0653,30.6778 34.3987,26.1778 32.5,22C 35.0578,20.6201 35.0578,19.1201 32.5,17.5C 34.7153,15.6082 34.382,13.9415 31.5,12.5 Z"/></g>
<g><path style="opacity:1" fill="#3d6b4a" d="M 10.5,12.5 C 15.8333,12.5 21.1667,12.5 26.5,12.5C 26.4326,13.9587 26.7659,15.2921 27.5,16.5C 21.5,16.5 15.5,16.5 9.5,16.5C 10.2341,15.2921 10.5674,13.9587 10.5,12.5 Z"/></g>
<g><path style="opacity:1" fill="#2fb185" d="M 9.5,16.5 C 15.5,16.5 21.5,16.5 27.5,16.5C 24.8333,17.1667 22.1667,17.8333 19.5,18.5C 18.8333,18.5 18.1667,18.5 17.5,18.5C 14.8333,17.8333 12.1667,17.1667 9.5,16.5 Z"/></g>
<g><path style="opacity:1" fill="#8a9597" d="M 6.5,18.5 C 6.83333,18.5 7.16667,18.5 7.5,18.5C 7.1936,21.3854 7.52693,24.0521 8.5,26.5C 7.65859,28.3792 7.32526,30.3792 7.5,32.5C 9.16667,32.5 10.8333,32.5 12.5,32.5C 10.4687,32.9724 8.80208,33.9724 7.5,35.5C 6.51114,30.0247 6.1778,24.358 6.5,18.5 Z"/></g>
<g><path style="opacity:1" fill="#6e8387" d="M 29.5,18.5 C 29.8333,18.5 30.1667,18.5 30.5,18.5C 30.8222,24.358 30.4889,30.0247 29.5,35.5C 28.1979,33.9724 26.5313,32.9724 24.5,32.5C 26.1667,32.5 27.8333,32.5 29.5,32.5C 29.634,30.7085 29.3007,29.0418 28.5,27.5C 29.4767,24.7131 29.81,21.7131 29.5,18.5 Z"/></g>
<g><path style="opacity:1" fill="#bbcace" d="M 7.5,18.5 C 10.8333,18.5 14.1667,18.5 17.5,18.5C 18.1667,18.5 18.8333,18.5 19.5,18.5C 22.8333,18.5 26.1667,18.5 29.5,18.5C 29.81,21.7131 29.4767,24.7131 28.5,27.5C 27.7455,25.5337 26.5788,25.2004 25,26.5C 24.5045,28.4727 24.3379,30.4727 24.5,32.5C 26.5313,32.9724 28.1979,33.9724 29.5,35.5C 29.5,35.8333 29.5,36.1667 29.5,36.5C 27.5,36.5 25.5,36.5 23.5,36.5C 23.8368,32.6924 23.3368,29.0257 22,25.5C 19.2116,22.6653 17.0449,22.9986 15.5,26.5C 14.8826,26.6107 14.3826,26.944 14,27.5C 13.502,30.4816 13.3354,33.4816 13.5,36.5C 11.5,36.5 9.5,36.5 7.5,36.5C 7.5,36.1667 7.5,35.8333 7.5,35.5C 8.80208,33.9724 10.4687,32.9724 12.5,32.5C 12.6621,30.4727 12.4955,28.4727 12,26.5C 10.8545,25.3157 9.68787,25.3157 8.5,26.5C 7.52693,24.0521 7.1936,21.3854 7.5,18.5 Z"/></g>
<g><path style="opacity:1" fill="#d7e6eb" d="M 31.5,12.5 C 34.382,13.9415 34.7153,15.6082 32.5,17.5C 35.0578,19.1201 35.0578,20.6201 32.5,22C 34.3987,26.1778 35.0653,30.6778 34.5,35.5C 33.5,35.5 32.5,35.5 31.5,35.5C 31.5,27.8333 31.5,20.1667 31.5,12.5 Z"/></g>
<g><path style="opacity:1" fill="#323f43" d="M 28.5,27.5 C 29.3007,29.0418 29.634,30.7085 29.5,32.5C 27.8333,32.5 26.1667,32.5 24.5,32.5C 24.3379,30.4727 24.5045,28.4727 25,26.5C 26.5788,25.2004 27.7455,25.5337 28.5,27.5 Z"/></g>
<g><path style="opacity:0.662" fill="#060707" d="M -0.5,29.5 C -0.166667,29.5 0.166667,29.5 0.5,29.5C 1.46822,31.6074 1.80155,33.9407 1.5,36.5C 2.83333,36.5 4.16667,36.5 5.5,36.5C 6.16667,36.5 6.83333,36.5 7.5,36.5C 9.5,36.5 11.5,36.5 13.5,36.5C 16.8333,36.5 20.1667,36.5 23.5,36.5C 25.5,36.5 27.5,36.5 29.5,36.5C 30.1667,36.5 30.8333,36.5 31.5,36.5C 32.8333,36.5 34.1667,36.5 35.5,36.5C 35.1984,33.9407 35.5318,31.6074 36.5,29.5C 36.8333,29.5 37.1667,29.5 37.5,29.5C 37.5,32.1667 37.5,34.8333 37.5,37.5C 24.8333,37.5 12.1667,37.5 -0.5,37.5C -0.5,34.8333 -0.5,32.1667 -0.5,29.5 Z"/></g>
<g><path style="opacity:1" fill="#323c40" d="M 12.5,32.5 C 10.8333,32.5 9.16667,32.5 7.5,32.5C 7.32526,30.3792 7.65859,28.3792 8.5,26.5C 9.68787,25.3157 10.8545,25.3157 12,26.5C 12.4955,28.4727 12.6621,30.4727 12.5,32.5 Z"/></g>
<g><path style="opacity:1" fill="#374246" d="M 23.5,36.5 C 20.1667,36.5 16.8333,36.5 13.5,36.5C 13.3354,33.4816 13.502,30.4816 14,27.5C 14.3826,26.944 14.8826,26.6107 15.5,26.5C 17.0449,22.9986 19.2116,22.6653 22,25.5C 23.3368,29.0257 23.8368,32.6924 23.5,36.5 Z"/></g>
<g><path style="opacity:1" fill="#668994" d="M 15.5,26.5 C 17.3388,25.2475 19.1722,25.2475 21,26.5C 21.498,29.4816 21.6646,32.4816 21.5,35.5C 19.5,35.5 17.5,35.5 15.5,35.5C 15.5,32.5 15.5,29.5 15.5,26.5 Z"/></g>
</svg>
