<svg width="23" height="23" viewBox="0 0 23 23" fill="none" xmlns="http://www.w3.org/2000/svg">
<g clip-path="url(#clip0_36_2075)">
<path d="M8.71125 8.62502C8.93656 7.98454 9.38127 7.44446 9.96662 7.10044C10.552 6.75642 11.2402 6.63067 11.9094 6.74545C12.5786 6.86024 13.1855 7.20815 13.6228 7.72757C14.06 8.24699 14.2993 8.9044 14.2983 9.58335C14.2983 11.5 11.4233 12.4584 11.4233 12.4584M11.5 16.2917H11.5096M21.0833 11.5C21.0833 16.7927 16.7927 21.0834 11.5 21.0834C6.20727 21.0834 1.91667 16.7927 1.91667 11.5C1.91667 6.20729 6.20727 1.91669 11.5 1.91669C16.7927 1.91669 21.0833 6.20729 21.0833 11.5Z" stroke="#1E1E1E" stroke-width="1.91667" stroke-linecap="round" stroke-linejoin="round"/>
</g>
<defs>
<clipPath id="clip0_36_2075">
<rect width="23" height="23" fill="white"/>
</clipPath>
</defs>
</svg>
