<?xml version="1.0" encoding="UTF-8"?>
<!DOCTYPE svg PUBLIC "-//W3C//DTD SVG 1.1//EN" "http://www.w3.org/Graphics/SVG/1.1/DTD/svg11.dtd">
<svg xmlns="http://www.w3.org/2000/svg" version="1.1" width="38px" height="38px" style="shape-rendering:geometricPrecision; text-rendering:geometricPrecision; image-rendering:optimizeQuality; fill-rule:evenodd; clip-rule:evenodd" xmlns:xlink="http://www.w3.org/1999/xlink">
<g><path style="opacity:0.546" fill="#110e0e" d="M 5.5,0.5 C 7.4672,0.260572 9.30054,0.593906 11,1.5C 11.769,4.09914 11.6023,6.59914 10.5,9C 11.448,9.48278 12.448,9.64945 13.5,9.5C 13.7063,2.37248 16.873,0.705817 23,4.5C 23.4935,6.13414 23.6602,7.80081 23.5,9.5C 24.552,9.64945 25.552,9.48278 26.5,9C 25.1667,6.33333 25.1667,3.66667 26.5,1C 32.7105,0.0478629 34.7105,2.54786 32.5,8.5C 35.9316,9.5155 37.2649,11.8488 36.5,15.5C 35.1811,20.4243 34.5144,25.4243 34.5,30.5C 31.8333,30.5 29.1667,30.5 26.5,30.5C 26.5,32.5 26.5,34.5 26.5,36.5C 21.1667,36.5 15.8333,36.5 10.5,36.5C 10.5,34.5 10.5,32.5 10.5,30.5C 7.83333,30.5 5.16667,30.5 2.5,30.5C 1.66495,23.8377 1.16495,17.171 1,10.5C 2.20508,9.92876 3.37174,9.26209 4.5,8.5C 3.02478,5.55725 3.35811,2.89058 5.5,0.5 Z"/></g>
<g><path style="opacity:1" fill="#9aa3a7" d="M 6.5,1.5 C 8.34642,1.22216 9.67975,1.88882 10.5,3.5C 8.83333,4.83333 7.16667,4.83333 5.5,3.5C 5.86273,2.81654 6.19607,2.14987 6.5,1.5 Z"/></g>
<g><path style="opacity:1" fill="#9da8ab" d="M 27.5,1.5 C 29.3464,1.22216 30.6798,1.88882 31.5,3.5C 29.8333,4.83333 28.1667,4.83333 26.5,3.5C 26.8627,2.81654 27.1961,2.14987 27.5,1.5 Z"/></g>
<g><path style="opacity:1" fill="#bdc9cd" d="M 16.5,3.5 C 18.6648,3.11589 20.3315,3.78256 21.5,5.5C 19.5,6.83333 17.5,6.83333 15.5,5.5C 15.8627,4.81654 16.1961,4.14987 16.5,3.5 Z"/></g>
<g><path style="opacity:1" fill="#dab78f" d="M 5.5,5.5 C 7.28801,5.21478 8.95467,5.54811 10.5,6.5C 8.20291,9.28959 6.53625,8.95626 5.5,5.5 Z"/></g>
<g><path style="opacity:1" fill="#e4c096" d="M 26.5,6.5 C 28.0348,5.21214 29.7015,5.21214 31.5,6.5C 29.8277,9.16129 28.1611,9.16129 26.5,6.5 Z"/></g>
<g><path style="opacity:1" fill="#e6c297" d="M 15.5,7.5 C 17.5,7.5 19.5,7.5 21.5,7.5C 21.2993,11.35 19.4659,12.35 16,10.5C 15.5172,9.55198 15.3505,8.55198 15.5,7.5 Z"/></g>
<g><path style="opacity:1" fill="#be9b71" d="M 6.5,11.5 C 6.63945,9.66298 7.30612,9.32964 8.5,10.5C 8.04311,11.2975 7.37644,11.6309 6.5,11.5 Z"/></g>
<g><path style="opacity:1" fill="#be9b71" d="M 30.5,11.5 C 28.663,11.3605 28.3296,10.6939 29.5,9.5C 30.2975,9.95689 30.6309,10.6236 30.5,11.5 Z"/></g>
<g><path style="opacity:1" fill="#f36666" d="M 34.5,12.5 C 32.746,14.5887 31.4127,16.922 30.5,19.5C 32.2419,22.1445 32.9086,25.1445 32.5,28.5C 30.2075,28.2436 28.0408,28.5769 26,29.5C 25.8333,29.1667 25.6667,28.8333 25.5,28.5C 26.6016,27.8243 27.6016,27.1577 28.5,26.5C 29.6378,23.6965 29.8045,20.6965 29,17.5C 28.5831,16.244 27.7498,15.5774 26.5,15.5C 25.713,13.8958 24.3797,13.2291 22.5,13.5C 22.5,13.1667 22.5,12.8333 22.5,12.5C 25.4368,10.7747 27.6035,11.4414 29,14.5C 29.5133,13.4734 30.0133,12.4734 30.5,11.5C 32.2633,10.0462 33.5967,10.3796 34.5,12.5 Z"/></g>
<g><path style="opacity:1" fill="#1b3549" d="M 2.5,12.5 C 4.25401,14.5887 5.58734,16.922 6.5,19.5C 4.85613,19.7135 3.35613,19.3802 2,18.5C 1.21086,16.2884 1.37753,14.2884 2.5,12.5 Z"/></g>
<g><path style="opacity:1" fill="#893a39" d="M 34.5,12.5 C 35.4682,14.6074 35.8016,16.9407 35.5,19.5C 33.8333,19.5 32.1667,19.5 30.5,19.5C 31.4127,16.922 32.746,14.5887 34.5,12.5 Z"/></g>
<g><path style="opacity:1" fill="#c9d5da" d="M 14.5,13.5 C 14.8333,13.5 15.1667,13.5 15.5,13.5C 17.5,21.5 19.5,21.5 21.5,13.5C 21.8333,13.5 22.1667,13.5 22.5,13.5C 23.5137,14.6737 24.847,15.3404 26.5,15.5C 27.1098,16.391 27.4431,17.391 27.5,18.5C 27.5,20.8333 27.5,23.1667 27.5,25.5C 25.8008,25.6602 24.1341,25.4935 22.5,25C 23.7375,24.7679 24.7375,24.2679 25.5,23.5C 25.6602,21.8008 25.4935,20.1341 25,18.5C 24.6655,20.5029 23.8321,22.1696 22.5,23.5C 22.1667,23.5 21.8333,23.5 21.5,23.5C 18.6085,22.5975 15.6085,22.2641 12.5,22.5C 11.9969,17.5 11.6636,17.8333 11.5,23.5C 13.5,23.5 15.5,23.5 17.5,23.5C 17.5,24.5 17.5,25.5 17.5,26.5C 8.76405,28.1693 6.09739,24.836 9.5,16.5C 11.3684,15.7368 13.0351,14.7368 14.5,13.5 Z"/></g>
<g><path style="opacity:1" fill="#e1b786" d="M 16.5,14.5 C 17.6009,13.4017 18.9343,13.235 20.5,14C 19.3181,15.7683 17.9848,15.9349 16.5,14.5 Z"/></g>
<g><path style="opacity:1" fill="#311e1d" d="M 22.5,13.5 C 24.3797,13.2291 25.713,13.8958 26.5,15.5C 24.847,15.3404 23.5137,14.6737 22.5,13.5 Z"/></g>
<g><path style="opacity:1" fill="#111112" d="M 25.5,23.5 C 24.5,23.5 23.5,23.5 22.5,23.5C 23.8321,22.1696 24.6655,20.5029 25,18.5C 25.4935,20.1341 25.6602,21.8008 25.5,23.5 Z"/></g>
<g><path style="opacity:1" fill="#5e2b2a" d="M 26.5,15.5 C 27.7498,15.5774 28.5831,16.244 29,17.5C 29.8045,20.6965 29.6378,23.6965 28.5,26.5C 28.8064,23.6146 28.4731,20.9479 27.5,18.5C 27.4431,17.391 27.1098,16.391 26.5,15.5 Z"/></g>
<g><path style="opacity:1" fill="#2f5c7e" d="M 6.5,11.5 C 6.98672,12.4734 7.48672,13.4734 8,14.5C 9.23318,10.207 11.3999,9.54034 14.5,12.5C 14.5,12.8333 14.5,13.1667 14.5,13.5C 13.0351,14.7368 11.3684,15.7368 9.5,16.5C 8.88258,16.6107 8.38258,16.944 8,17.5C 7.33333,20.5 7.33333,23.5 8,26.5C 9.01127,27.3366 10.1779,27.67 11.5,27.5C 11.5,27.8333 11.5,28.1667 11.5,28.5C 9.477,28.7153 7.14366,28.7153 4.5,28.5C 4.09141,25.1445 4.75807,22.1445 6.5,19.5C 5.58734,16.922 4.25401,14.5887 2.5,12.5C 3.40335,10.3796 4.73668,10.0462 6.5,11.5 Z"/></g>
<g><path style="opacity:1" fill="#bd9e7b" d="M 18.5,24.5 C 20.337,24.6395 20.6704,25.3061 19.5,26.5C 18.7025,26.0431 18.3691,25.3764 18.5,24.5 Z"/></g>
<g><path style="opacity:1" fill="#899194" d="M 27.5,18.5 C 28.4731,20.9479 28.8064,23.6146 28.5,26.5C 26.1667,26.5 23.8333,26.5 21.5,26.5C 21.5,25.5 21.5,24.5 21.5,23.5C 21.8333,23.5 22.1667,23.5 22.5,23.5C 23.5,23.5 24.5,23.5 25.5,23.5C 24.7375,24.2679 23.7375,24.7679 22.5,25C 24.1341,25.4935 25.8008,25.6602 27.5,25.5C 27.5,23.1667 27.5,20.8333 27.5,18.5 Z"/></g>
<g><path style="opacity:1" fill="#cedce0" d="M 11.5,28.5 C 11.5,28.1667 11.5,27.8333 11.5,27.5C 15.8333,27.5 20.1667,27.5 24.5,27.5C 24.5,30.1667 24.5,32.8333 24.5,35.5C 20.5,35.5 16.5,35.5 12.5,35.5C 12.8016,32.9407 12.4682,30.6074 11.5,28.5 Z"/></g>
</svg>
