<?xml version="1.0" standalone="no"?>
<!DOCTYPE svg PUBLIC "-//W3C//DTD SVG 20010904//EN"
 "http://www.w3.org/TR/2001/REC-SVG-20010904/DTD/svg10.dtd">
<svg version="1.0" xmlns="http://www.w3.org/2000/svg"
 width="38.000000pt" height="38.000000pt" viewBox="0 0 38.000000 38.000000"
 preserveAspectRatio="xMidYMid meet">

<g transform="translate(0.000000,38.000000) scale(0.100000,-0.100000)"
fill="#000000" stroke="none">
<path d="M26 359 c-26 -20 -26 -21 -26 -163 0 -130 2 -146 21 -170 20 -26 21
-26 163 -26 130 0 146 2 170 21 26 20 26 21 26 163 0 130 -2 146 -21 170 -20
26 -21 26 -163 26 -130 0 -146 -2 -170 -21z m108 -64 c20 -31 20 -44 0 -67
-16 -17 -14 -21 30 -64 43 -44 47 -46 64 -30 24 20 41 20 70 -2 28 -22 21 -46
-19 -62 -25 -11 -36 -9 -85 15 -86 42 -150 145 -123 197 23 44 41 47 63 13z"/>
</g>
</svg>
