<svg width="23" height="23" viewBox="0 0 23 23" fill="none" xmlns="http://www.w3.org/2000/svg">
<path d="M21.0833 16.215V19.09C21.0844 19.3569 21.0297 19.6211 20.9228 19.8656C20.8159 20.1102 20.6591 20.3297 20.4624 20.5101C20.2657 20.6905 20.0336 20.8279 19.7807 20.9134C19.5279 20.9989 19.26 21.0307 18.9942 21.0067C16.0452 20.6862 13.2125 19.6785 10.7238 18.0646C8.40825 16.5932 6.44512 14.6301 4.97375 12.3146C3.35415 9.81448 2.34624 6.96803 2.03167 4.00582C2.00772 3.74081 2.03922 3.47372 2.12415 3.22155C2.20908 2.96938 2.34559 2.73765 2.52499 2.54113C2.70438 2.3446 2.92273 2.18759 3.16614 2.08007C3.40954 1.97256 3.67266 1.91691 3.93875 1.91666H6.81375C7.27884 1.91208 7.72972 2.07677 8.08236 2.38004C8.435 2.68331 8.66533 3.10446 8.73042 3.56499C8.85177 4.48505 9.07681 5.38844 9.40125 6.25791C9.53019 6.60092 9.5581 6.9737 9.48166 7.33208C9.40523 7.69047 9.22766 8.01943 8.97 8.27999L7.75292 9.49707C9.11716 11.8963 11.1037 13.8828 13.5029 15.2471L14.72 14.03C14.9806 13.7723 15.3095 13.5948 15.6679 13.5183C16.0263 13.4419 16.3991 13.4698 16.7421 13.5987C17.6116 13.9232 18.5149 14.1482 19.435 14.2696C19.9005 14.3352 20.3257 14.5697 20.6296 14.9284C20.9335 15.2871 21.095 15.745 21.0833 16.215Z" stroke="#1E1E1E" stroke-width="1.91667" stroke-linecap="round" stroke-linejoin="round"/>
</svg>
