<?xml version="1.0" standalone="no"?>
<!DOCTYPE svg PUBLIC "-//W3C//DTD SVG 20010904//EN"
 "http://www.w3.org/TR/2001/REC-SVG-20010904/DTD/svg10.dtd">
<svg version="1.0" xmlns="http://www.w3.org/2000/svg"
 width="39.000000pt" height="38.000000pt" viewBox="0 0 39.000000 38.000000"
 preserveAspectRatio="xMidYMid meet">

<g transform="translate(0.000000,38.000000) scale(0.100000,-0.100000)"
fill="#000000" stroke="none">
<path d="M21 354 c-19 -24 -21 -40 -21 -164 0 -124 2 -140 21 -164 l20 -26
154 0 154 0 20 26 c19 24 21 40 21 164 0 124 -2 140 -21 164 l-20 26 -154 0
-154 0 -20 -26z m224 -124 c-21 -22 -44 -40 -50 -40 -6 0 -29 18 -50 40 l-39
40 89 0 89 0 -39 -40z m-105 -35 c0 -6 -13 -24 -30 -40 l-30 -29 0 69 0 69 30
-29 c17 -16 30 -34 30 -40z m170 -2 l0 -67 -35 34 -35 34 32 33 c18 18 33 33
35 33 2 0 3 -30 3 -67z m-100 -28 c15 13 19 12 45 -15 l29 -30 -89 0 -89 0 29
30 c26 27 31 29 44 15 13 -13 17 -13 31 0z"/>
</g>
</svg>
