<svg width="37" height="38" viewBox="0 0 37 38" fill="none" xmlns="http://www.w3.org/2000/svg">
<g clip-path="url(#clip0_30_162)">
<path d="M0.576782 21.3939C0.576782 23.4944 0.979621 25.5744 1.7623 27.515C2.54498 29.4556 3.69216 31.2189 5.13836 32.7042C6.58456 34.1895 8.30145 35.3677 10.191 36.1715C12.0806 36.9753 14.1058 37.389 16.151 37.389C18.1962 37.389 20.2214 36.9753 22.111 36.1715C24.0005 35.3677 25.7174 34.1895 27.1636 32.7042C28.6098 31.2189 29.757 29.4556 30.5397 27.515C31.3224 25.5744 31.7252 23.4944 31.7252 21.3939C31.7252 19.2934 31.3224 17.2135 30.5397 15.2728C29.757 13.3322 28.6098 11.5689 27.1636 10.0836C25.7174 8.59835 24.0005 7.42016 22.111 6.61633C20.2214 5.8125 18.1962 5.39877 16.151 5.39877C14.1058 5.39877 12.0806 5.8125 10.191 6.61633C8.30145 7.42016 6.58456 8.59835 5.13836 10.0836C3.69216 11.5689 2.54498 13.3322 1.7623 15.2728C0.979621 17.2135 0.576782 19.2934 0.576782 21.3939Z" fill="white"/>
<path d="M16.151 37.9815C7.23912 37.9815 0 30.5467 0 21.3939C0 12.2411 7.23912 4.80637 16.151 4.80637C25.0629 4.80637 32.3021 12.2411 32.3021 21.3939C32.3021 30.5467 25.0629 37.9815 16.151 37.9815ZM16.151 5.99119C7.87363 5.99119 1.15365 12.8928 1.15365 21.3939C1.15365 29.895 7.87363 36.7966 16.151 36.7966C24.4284 36.7966 31.1484 29.895 31.1484 21.3939C31.1484 12.8928 24.4284 5.99119 16.151 5.99119Z" fill="#191919"/>
<path d="M4.44153 21.3939C4.44153 22.9732 4.7444 24.537 5.33286 25.9961C5.92132 27.4551 6.78383 28.7809 7.87116 29.8976C8.95849 31.0143 10.2493 31.9001 11.67 32.5045C13.0907 33.1088 14.6133 33.4199 16.151 33.4199C17.6887 33.4199 19.2114 33.1088 20.6321 32.5045C22.0527 31.9001 23.3436 31.0143 24.4309 29.8976C25.5182 28.7809 26.3807 27.4551 26.9692 25.9961C27.5577 24.537 27.8605 22.9732 27.8605 21.3939C27.8605 19.8147 27.5577 18.2508 26.9692 16.7918C26.3807 15.3327 25.5182 14.007 24.4309 12.8903C23.3436 11.7736 22.0527 10.8877 20.6321 10.2834C19.2114 9.67901 17.6887 9.36795 16.151 9.36795C14.6133 9.36795 13.0907 9.67901 11.67 10.2834C10.2493 10.8877 8.95849 11.7736 7.87116 12.8903C6.78383 14.007 5.92132 15.3327 5.33286 16.7918C4.7444 18.2508 4.44153 19.8147 4.44153 21.3939Z" fill="#F86C6C"/>
<path d="M16.1511 34.0419C9.3734 34.0419 3.86475 28.3844 3.86475 21.4235C3.86475 14.4627 9.3734 8.80515 16.1511 8.80515C22.9287 8.80515 28.4374 14.4627 28.4374 21.4235C28.4374 28.3844 22.9287 34.0419 16.1511 34.0419ZM16.1511 9.96035C10.0079 9.96035 5.01839 15.0847 5.01839 21.3939C5.01839 27.7031 10.0079 32.8275 16.1511 32.8275C22.2942 32.8275 27.2838 27.7031 27.2838 21.3939C27.2838 15.0847 22.2942 9.96035 16.1511 9.96035Z" fill="#191919"/>
<path d="M8.62354 21.3939C8.62354 23.4443 9.41661 25.4107 10.8283 26.8605C12.24 28.3104 14.1546 29.1249 16.1511 29.1249C18.1475 29.1249 20.0622 28.3104 21.4738 26.8605C22.8855 25.4107 23.6786 23.4443 23.6786 21.3939C23.6786 19.3435 22.8855 17.3771 21.4738 15.9273C20.0622 14.4774 18.1475 13.6629 16.1511 13.6629C14.1546 13.6629 12.24 14.4774 10.8283 15.9273C9.41661 17.3771 8.62354 19.3435 8.62354 21.3939Z" fill="white"/>
<path d="M16.151 29.7469C11.6806 29.7469 8.04663 26.0147 8.04663 21.4235C8.04663 16.8323 11.6806 13.0705 16.151 13.0705C20.6214 13.0705 24.2553 16.8027 24.2553 21.3939C24.2553 25.9851 20.6214 29.7469 16.151 29.7469ZM16.151 14.2554C12.3151 14.2554 9.20028 17.4544 9.20028 21.3939C9.20028 25.3335 12.3151 28.5325 16.151 28.5325C19.9869 28.5325 23.1017 25.3335 23.1017 21.3939C23.1017 17.4544 19.9869 14.2554 16.151 14.2554Z" fill="#191919"/>
<path d="M12.4882 21.3939C12.4882 21.8879 12.5829 22.3771 12.767 22.8335C12.951 23.2899 13.2209 23.7046 13.561 24.0539C13.9011 24.4032 14.3049 24.6803 14.7493 24.8694C15.1937 25.0584 15.67 25.1557 16.151 25.1557C16.632 25.1557 17.1083 25.0584 17.5527 24.8694C17.9971 24.6803 18.4009 24.4032 18.741 24.0539C19.0811 23.7046 19.3509 23.2899 19.535 22.8335C19.7191 22.3771 19.8138 21.8879 19.8138 21.3939C19.8138 20.3962 19.4279 19.4394 18.741 18.7339C18.0541 18.0284 17.1224 17.6321 16.151 17.6321C15.1795 17.6321 14.2479 18.0284 13.561 18.7339C12.8741 19.4394 12.4882 20.3962 12.4882 21.3939Z" fill="#F86C6C"/>
<path d="M16.151 25.7481C13.8149 25.7481 11.9114 23.7932 11.9114 21.3939C11.9114 18.9946 13.8149 17.0397 16.151 17.0397C18.4872 17.0397 20.3907 18.9946 20.3907 21.3939C20.3907 23.8228 18.4872 25.7481 16.151 25.7481ZM16.151 18.2541C14.4494 18.2541 13.065 19.6759 13.065 21.4235C13.065 23.1711 14.4494 24.5633 16.151 24.5633C17.8527 24.5633 19.237 23.1415 19.237 21.3939C19.237 19.6463 17.8527 18.2541 16.151 18.2541Z" fill="#191919"/>
<path d="M36.3975 4.27319L31.7252 9.04211L28.0912 9.13097L28.1778 5.39877L32.85 0.629852L32.7058 4.42129L36.3975 4.27319Z" fill="#C2CDDC"/>
<path d="M28.1201 9.72337C27.9759 9.72337 27.8317 9.66413 27.7163 9.54565C27.601 9.42717 27.5433 9.27906 27.5433 9.10134L27.6298 5.36914C27.6298 5.22104 27.6875 5.07293 27.8028 4.95445L32.4751 0.18553C32.6482 0.00780622 32.9077 -0.0218144 33.1096 0.0670475C33.3403 0.155909 33.4557 0.392874 33.4557 0.629839L33.3403 3.76963L36.3975 3.65114C36.6282 3.65114 36.859 3.76963 36.9455 4.00659C37.032 4.24356 37.0032 4.48052 36.8301 4.65825L32.1579 9.42717C32.0425 9.54565 31.8983 9.60489 31.7541 9.60489L28.1201 9.72337ZM28.7546 5.66535L28.6969 8.53855L31.4945 8.47931L34.9554 4.92483L32.7347 5.01369C32.5616 5.01369 32.4174 4.95445 32.3021 4.83597C32.1867 4.71749 32.129 4.56938 32.129 4.39166L32.2155 2.11087L28.7546 5.66535Z" fill="#191919"/>
<path d="M16.4395 21.542C16.2953 21.542 16.1511 21.4828 16.0357 21.3643C15.805 21.1273 15.805 20.7719 16.0357 20.5349L35.0132 1.04455C35.2439 0.80758 35.59 0.80758 35.8207 1.04455C36.0515 1.28151 36.0515 1.63696 35.8207 1.87392L16.8433 21.3643C16.7279 21.4828 16.5837 21.542 16.4395 21.542Z" fill="#191919"/>
<path d="M34.0325 6.99828H30.6004C30.2832 6.99828 30.0236 6.73169 30.0236 6.40586V2.94025C30.0236 2.61442 30.2832 2.34784 30.6004 2.34784C30.9177 2.34784 31.1773 2.61442 31.1773 2.94025V5.81345H34.0325C34.3498 5.81345 34.6094 6.08004 34.6094 6.40586C34.6094 6.73169 34.3498 6.99828 34.0325 6.99828Z" fill="#191919"/>
</g>
<defs>
<clipPath id="clip0_30_162">
<rect width="37" height="38" fill="white"/>
</clipPath>
</defs>
</svg>
