<svg width="23" height="23" viewBox="0 0 23 23" fill="none" xmlns="http://www.w3.org/2000/svg">
<g clip-path="url(#clip0_36_2015)">
<path d="M21.0833 11.5C21.0833 16.7927 16.7927 21.0834 11.5 21.0834M21.0833 11.5C21.0833 6.20729 16.7927 1.91669 11.5 1.91669M21.0833 11.5H1.91667M11.5 21.0834C6.20727 21.0834 1.91667 16.7927 1.91667 11.5M11.5 21.0834C13.8971 18.4591 15.2593 15.0535 15.3333 11.5C15.2593 7.94655 13.8971 4.54094 11.5 1.91669M11.5 21.0834C9.10294 18.4591 7.7407 15.0535 7.66667 11.5C7.7407 7.94655 9.10294 4.54094 11.5 1.91669M1.91667 11.5C1.91667 6.20729 6.20727 1.91669 11.5 1.91669" stroke="#1E1E1E" stroke-width="1.91667" stroke-linecap="round" stroke-linejoin="round"/>
</g>
<defs>
<clipPath id="clip0_36_2015">
<rect width="23" height="23" fill="white"/>
</clipPath>
</defs>
</svg>
