<?xml version="1.0" standalone="no"?>
<!DOCTYPE svg PUBLIC "-//W3C//DTD SVG 20010904//EN"
 "http://www.w3.org/TR/2001/REC-SVG-20010904/DTD/svg10.dtd">
<svg version="1.0" xmlns="http://www.w3.org/2000/svg"
 width="512.000000pt" height="512.000000pt" viewBox="0 0 512.000000 512.000000"
 preserveAspectRatio="xMidYMid meet">

<g transform="translate(0.000000,512.000000) scale(0.100000,-0.100000)"
fill="#000000" stroke="none">
<path d="M2455 5111 c-323 -26 -620 -160 -854 -386 -167 -161 -281 -338 -354
-550 -54 -157 -71 -259 -71 -425 -1 -133 2 -156 33 -275 62 -240 164 -489 367
-895 256 -508 651 -1188 735 -1265 141 -128 361 -129 504 -4 117 103 738 1228
938 1699 142 336 197 540 197 736 0 360 -141 694 -405 960 -298 299 -670 438
-1090 405z m234 -747 c261 -58 451 -318 428 -588 -19 -223 -177 -421 -386
-487 -86 -26 -221 -36 -292 -19 -200 46 -373 212 -424 405 -20 78 -19 226 1
296 51 174 188 323 348 380 111 39 193 42 325 13z"/>
</g>
</svg>
