<svg width="29" height="29" viewBox="0 0 29 29" fill="none" xmlns="http://www.w3.org/2000/svg">
<path fill-rule="evenodd" clip-rule="evenodd" d="M5.13544 22.9583C5.13544 22.4579 5.54118 22.0521 6.04169 22.0521H22.9584C23.4588 22.0521 23.8646 22.4579 23.8646 22.9583C23.8646 23.4588 23.4588 23.8646 22.9584 23.8646H6.04169C5.54118 23.8646 5.13544 23.4588 5.13544 22.9583ZM8.76044 26.5833C8.76044 26.0829 9.16618 25.6771 9.66669 25.6771H19.3334C19.8338 25.6771 20.2396 26.0829 20.2396 26.5833C20.2396 27.0838 19.8338 27.4896 19.3334 27.4896H9.66669C9.16618 27.4896 8.76044 27.0838 8.76044 26.5833Z" fill="#EAA53D"/>
<path d="M7.34991 18.4271C6.70881 17.262 6.34377 15.9232 6.34377 14.5C6.34377 9.99543 9.99545 6.34375 14.5 6.34375C19.0046 6.34375 22.6563 9.99543 22.6563 14.5C22.6563 15.9232 22.2912 17.262 21.6501 18.4271H26.5834C27.0838 18.4271 27.4896 18.8328 27.4896 19.3333C27.4896 19.8338 27.0838 20.2396 26.5834 20.2396H2.41669C1.91618 20.2396 1.51044 19.8338 1.51044 19.3333C1.51044 18.8328 1.91618 18.4271 2.41669 18.4271H7.34991Z" fill="#EAA53D"/>
<path fill-rule="evenodd" clip-rule="evenodd" d="M14.5 1.51041C15.0005 1.51041 15.4063 1.91615 15.4063 2.41666V3.62499C15.4063 4.12549 15.0005 4.53124 14.5 4.53124C13.9995 4.53124 13.5938 4.12549 13.5938 3.62499V2.41666C13.5938 1.91615 13.9995 1.51041 14.5 1.51041ZM5.31501 5.31498C5.66892 4.96107 6.24273 4.96107 6.59664 5.31498L7.07132 5.78966C7.42523 6.14357 7.42523 6.71737 7.07132 7.07129C6.7174 7.4252 6.1436 7.4252 5.78969 7.07129L5.31501 6.59661C4.9611 6.2427 4.9611 5.66889 5.31501 5.31498ZM23.6847 5.31529C24.0386 5.6692 24.0386 6.24301 23.6847 6.59692L23.21 7.0716C22.8561 7.42551 22.2823 7.42551 21.9284 7.0716C21.5744 6.71768 21.5744 6.14388 21.9284 5.78997L22.4031 5.31529C22.757 4.96138 23.3308 4.96138 23.6847 5.31529ZM1.51044 14.5C1.51044 13.9995 1.91618 13.5937 2.41669 13.5937H3.62502C4.12552 13.5937 4.53127 13.9995 4.53127 14.5C4.53127 15.0005 4.12552 15.4062 3.62502 15.4062H2.41669C1.91618 15.4062 1.51044 15.0005 1.51044 14.5ZM24.4688 14.5C24.4688 13.9995 24.8745 13.5937 25.375 13.5937H26.5834C27.0838 13.5937 27.4896 13.9995 27.4896 14.5C27.4896 15.0005 27.0838 15.4062 26.5834 15.4062H25.375C24.8745 15.4062 24.4688 15.0005 24.4688 14.5Z" fill="#EAA53D"/>
</svg>
