<svg width="25" height="25" viewBox="0 0 25 25" fill="none" xmlns="http://www.w3.org/2000/svg">
<g clip-path="url(#clip0_36_917)">
<path d="M5.8125 18.5C4.07684 19.1618 3 20.0839 3 21.1039C3 23.1176 7.19733 24.75 12.375 24.75C17.5527 24.75 21.75 23.1176 21.75 21.1039C21.75 20.0839 20.6731 19.1618 18.9375 18.5M12.375 12.25H12.3854M18.625 12.25C18.625 16.483 13.9375 18.5 12.375 21.625C10.8125 18.5 6.125 16.483 6.125 12.25C6.125 8.79822 8.92322 6 12.375 6C15.8268 6 18.625 8.79822 18.625 12.25ZM13.4167 12.25C13.4167 12.8253 12.9503 13.2917 12.375 13.2917C11.7997 13.2917 11.3333 12.8253 11.3333 12.25C11.3333 11.6747 11.7997 11.2083 12.375 11.2083C12.9503 11.2083 13.4167 11.6747 13.4167 12.25Z" stroke="black" stroke-opacity="0.8" stroke-width="2" stroke-linecap="round" stroke-linejoin="round"/>
</g>
<defs>
<clipPath id="clip0_36_917">
<rect width="25" height="25" fill="white"/>
</clipPath>
</defs>
</svg>
