<svg width="26" height="25" viewBox="0 0 26 25" fill="none" xmlns="http://www.w3.org/2000/svg">
<path d="M6.61927 15.625C4.8554 16.2868 3.76105 17.2089 3.76105 18.2289C3.76105 20.2426 8.02662 21.875 13.2885 21.875C18.5503 21.875 22.8159 20.2426 22.8159 18.2289C22.8159 17.2089 21.7215 16.2868 19.9576 15.625M13.2885 9.375H13.299M19.6401 9.375C19.6401 13.608 14.8764 15.625 13.2885 18.75C11.7006 15.625 6.93685 13.608 6.93685 9.375C6.93685 5.92322 9.78056 3.125 13.2885 3.125C16.7963 3.125 19.6401 5.92322 19.6401 9.375ZM14.3471 9.375C14.3471 9.95029 13.8731 10.4167 13.2885 10.4167C12.7038 10.4167 12.2299 9.95029 12.2299 9.375C12.2299 8.79971 12.7038 8.33333 13.2885 8.33333C13.8731 8.33333 14.3471 8.79971 14.3471 9.375Z" stroke="#FCF9F9" stroke-opacity="0.8" stroke-width="1.47059" stroke-linecap="round" stroke-linejoin="round"/>
</svg>
