<svg width="109" height="97" viewBox="0 0 109 97" fill="none" xmlns="http://www.w3.org/2000/svg">
<g clip-path="url(#clip0_23_20)">
<path d="M92.7803 62.1137H18.3154V97H92.7803V62.1137Z" fill="#CCCCCC"/>
<path d="M99.8429 17.5852C102.128 18.9167 102.452 21.1181 101.559 22.9244H100.954H87.9174H87.3098C86.4189 21.1181 86.7431 18.9167 89.0255 17.5852C93.6746 14.8792 94.4355 12.246 94.4355 12.246C94.4355 12.246 95.1963 14.8792 99.8429 17.5852Z" fill="#E6E6E6"/>
<path d="M19.9732 17.5852C22.2581 18.9167 22.5824 21.1181 21.6889 22.9244H21.0813H8.04789H7.4403C6.5468 21.1181 6.87103 18.9167 9.15598 17.5852C13.8051 14.8792 14.566 12.246 14.566 12.246C14.566 12.246 15.3266 14.8792 19.9732 17.5852Z" fill="#E6E6E6"/>
<path d="M14.5606 12.2644C14.5198 12.4938 14.045 15.0067 11.6885 17.5854C10.4733 18.9169 10.3022 21.1183 10.7771 22.9246H7.4403C6.5468 21.1183 6.87103 18.9169 9.15598 17.5854C13.5879 15.0065 14.4866 12.4938 14.5606 12.2644Z" fill="#CCCCCC"/>
<path d="M14.5657 12.2505C14.5632 12.2528 14.5632 12.2573 14.5607 12.264C14.5632 12.2528 14.5632 12.246 14.5632 12.246C14.5632 12.246 14.5632 12.2483 14.5657 12.2505Z" fill="#CCCCCC"/>
<path d="M61.6977 14.6226C64.5571 14.6226 67.1128 13.473 68.8208 11.669C68.1545 16.9263 63.1403 21.0136 57.0537 21.0136C50.5103 21.0136 45.2076 16.2947 45.2076 10.4739C45.2076 5.05518 49.8005 0.595262 55.7108 0C53.6811 1.51998 52.3918 3.79645 52.3918 6.33891C52.3918 10.9146 56.5585 14.6226 61.6977 14.6226Z" fill="#F7B239"/>
<path d="M96.0595 10.0008C97.0639 10.0008 97.9617 9.59712 98.5618 8.96321C98.3276 10.8102 96.5664 12.2457 94.4281 12.2457C92.1295 12.2457 90.267 10.588 90.267 8.54319C90.267 6.63976 91.8805 5.07298 93.9566 4.86401C93.2436 5.39789 92.7906 6.19757 92.7906 7.09085C92.7906 8.69854 94.2542 10.0008 96.0595 10.0008Z" fill="#F7B239"/>
<path d="M16.197 10.0008C17.2014 10.0008 18.0992 9.59711 18.6993 8.9632C18.4651 10.8102 16.7039 12.246 14.5658 12.246C12.2672 12.246 10.4047 10.5883 10.4047 8.54356C10.4047 6.64012 12.0182 5.07335 14.0943 4.86438C13.3813 5.39826 12.9283 6.19794 12.9283 7.09121C12.9281 8.69853 14.3917 10.0008 16.197 10.0008Z" fill="#F7B239"/>
<path d="M64.9708 80.0646V97H44.5642V80.0646C44.5642 75.298 48.9095 71.431 54.2658 71.431H55.2692C60.6281 71.431 64.9708 75.298 64.9708 80.0646Z" fill="#999999"/>
<path d="M100.953 22.9242V97H87.9174V62.1137V22.9242H100.953Z" fill="#E6E6E6"/>
<path d="M21.0812 62.1137V97H8.04785V22.9242H21.0812V62.1137Z" fill="#E6E6E6"/>
<path d="M12.9113 62.1137V97H8.04785V22.9242H12.9113V62.1137Z" fill="#CCCCCC"/>
<path d="M92.7811 62.1137V97H87.9174V22.9242H92.7811V62.1137Z" fill="#CCCCCC"/>
<path d="M77.1768 62.1138V97H64.9708V80.0646C64.9708 75.298 60.628 71.4311 55.2691 71.4311H54.2658C48.9094 71.4311 44.5641 75.298 44.5641 80.0646V97H31.8218V62.1138V54.9433H31.8627L55.1814 40.2306L77.1385 54.9433H77.1768V62.1138Z" fill="#F2F2F2"/>
<path d="M38.6709 54.9433H31.8212V97H38.6709V54.9433Z" fill="#E6E6E6"/>
<path d="M71.6852 37.9785C78.9435 42.2067 79.9724 49.2044 77.1386 54.9435H31.8627C29.0264 49.2044 30.0576 42.2067 37.3161 37.9785C52.0831 29.3768 54.5006 21.0135 54.5006 21.0135C54.5006 21.0135 56.9159 29.3768 71.6852 37.9785Z" fill="#E6E6E6"/>
<path d="M44.4165 37.9785C53.0596 29.3985 54.4928 21.0579 54.5001 21.0156C54.4754 21.0997 52.008 29.4203 37.3159 37.9785C30.0577 42.2067 29.0262 49.2043 31.8625 54.9435H41.2161C39.5521 49.2043 40.1572 42.2065 44.4165 37.9785Z" fill="#CCCCCC"/>
<path d="M94.4352 44.4628C93.3778 44.4628 92.5205 43.6998 92.5205 42.7588V37.263C92.5205 36.3219 93.3778 35.559 94.4352 35.559C95.4927 35.559 96.35 36.3219 96.35 37.263V42.7588C96.35 43.6998 95.4929 44.4628 94.4352 44.4628Z" fill="#808080"/>
<path d="M94.4352 65.0127C93.3778 65.0127 92.5205 64.2498 92.5205 63.3088V57.813C92.5205 56.8719 93.3778 56.109 94.4352 56.109C95.4927 56.109 96.35 56.8719 96.35 57.813V63.3088C96.35 64.2498 95.4929 65.0127 94.4352 65.0127Z" fill="#808080"/>
<path d="M21.6889 24.6283H7.44037C6.38295 24.6283 5.52563 23.8654 5.52563 22.9244C5.52563 21.9834 6.38295 21.2205 7.44037 21.2205H21.6889C22.7464 21.2205 23.6037 21.9834 23.6037 22.9244C23.6037 23.8654 22.7464 24.6283 21.6889 24.6283Z" fill="#CCCCCC"/>
<path d="M101.56 24.6283H87.3112C86.2538 24.6283 85.3965 23.8654 85.3965 22.9244C85.3965 21.9834 86.2538 21.2205 87.3112 21.2205H101.56C102.617 21.2205 103.475 21.9834 103.475 22.9244C103.475 23.8654 102.617 24.6283 101.56 24.6283Z" fill="#CCCCCC"/>
<path d="M14.5657 44.4628C13.5083 44.4628 12.651 43.6998 12.651 42.7588V37.263C12.651 36.3219 13.5083 35.559 14.5657 35.559C15.6232 35.559 16.4805 36.3219 16.4805 37.263V42.7588C16.4805 43.6998 15.6232 44.4628 14.5657 44.4628Z" fill="#808080"/>
<path d="M14.5657 65.0127C13.5083 65.0127 12.651 64.2498 12.651 63.3088V57.813C12.651 56.8719 13.5083 56.109 14.5657 56.109C15.6232 56.109 16.4805 56.8719 16.4805 57.813V63.3088C16.4805 64.2498 15.6232 65.0127 14.5657 65.0127Z" fill="#808080"/>
</g>
<defs>
<clipPath id="clip0_23_20">
<rect width="109" height="97" fill="white"/>
</clipPath>
</defs>
</svg>
