<svg width="99" height="91" viewBox="0 0 99 91" fill="none" xmlns="http://www.w3.org/2000/svg">
<g clip-path="url(#clip0_31_597)" filter="url(#filter0_d_31_597)">
<path d="M4.96301 57.6099L49.4945 79.615L94.037 57.6099L49.5341 35.6247L4.96301 57.6099Z" fill="#E0E0E2"/>
<path d="M94.037 57.61V60.995L49.4945 83V79.615L94.037 57.61Z" fill="#C6C5CB"/>
<path d="M4.96301 57.61V60.995L49.4945 83V79.615L4.96301 57.61Z" fill="#D8D8DA"/>
<path d="M49.4945 76.23L87.1853 57.6099V33.9152L49.4945 52.5327V76.23Z" fill="#ACABB1"/>
<path d="M11.8147 33.9152V57.6099L49.4945 76.23V52.5327L11.8147 33.9152Z" fill="#C6C5CB"/>
<path d="M8.38867 32.2226V35.6077L49.4945 55.9201L90.6113 35.6077V32.2226L49.4998 11.9129L8.38867 32.2226Z" fill="#D8D8DA"/>
<path d="M8.38867 32.2226L49.4945 52.5327L90.6113 32.2226L49.4998 11.9129L8.38867 32.2226Z" fill="#E0E0E2"/>
<path d="M15.2406 32.2228L49.4945 49.1504L83.7594 32.2228L49.4998 15.2979L15.2406 32.2228Z" fill="#898890"/>
<path d="M18.6638 33.9165L49.4945 18.6802L49.4998 15.2979L15.2406 32.2228L18.6638 33.9165Z" fill="#C6C5CB"/>
<path d="M83.7594 32.2228L80.3307 33.9165L49.4945 18.6802L49.4998 15.2979" fill="#D8D8DA"/>
<path d="M39.2182 74.532L39.2162 50.8383L18.6667 40.6205V64.3136L22.0924 66.0061L22.0904 45.7612L35.7926 52.5306V72.8396L39.2182 74.532Z" fill="#00AB95"/>
<path d="M39.2169 50.8419L39.2222 74.534L42.6443 72.8435V52.5297L39.2169 50.8419Z" fill="#008778"/>
<path d="M22.0924 66.0061L25.5185 64.3161V47.4551L22.0903 45.7612L22.0924 66.0061Z" fill="#008778"/>
<path d="M33.0801 59.9794C33.081 56.5956 31.9597 53.2953 30.5878 52.6452C29.2162 51.9951 28.0939 54.2314 28.0939 57.6151V65.5707L33.082 68.0389L33.0801 59.9794Z" fill="#00AB95"/>
<path d="M32.5836 61.3107C32.5843 58.6011 31.6863 55.958 30.5877 55.4373C29.489 54.9167 28.5905 56.7078 28.5905 59.4176V65.7887L32.5851 67.7654L32.5836 61.3107Z" fill="#01CDB4"/>
<path d="M47.788 59.9722V65.1915L44.2947 63.4982L44.2981 58.6286C44.2987 57.7921 45.3484 57.2635 46.2032 57.6694C47.1814 58.1335 47.788 59.0152 47.788 59.9722Z" fill="#2487FF"/>
<path d="M16.9548 44.7399V49.9592L13.4614 48.2659L13.4648 43.3963C13.4654 42.5599 14.5152 42.0312 15.37 42.4371C16.3481 42.9013 16.9548 43.7828 16.9548 44.7399Z" fill="#2487FF"/>
<path d="M52.9258 59.1607V64.3799L56.4191 62.6544L56.4157 57.8169C56.4151 56.9805 55.3654 56.4518 54.5106 56.8577C53.5326 57.322 52.9258 58.2037 52.9258 59.1607Z" fill="#2487FF"/>
<path d="M59.7778 55.7758V60.9951L63.2712 59.2698L63.2677 54.4323C63.2672 53.5958 62.2174 53.0671 61.3626 53.4731C60.3845 53.937 59.7778 54.8189 59.7778 55.7758Z" fill="#2487FF"/>
<path d="M66.6295 52.3908V57.6101L70.1228 55.8853L70.1194 51.0471C70.1189 50.2106 69.0691 49.682 68.2143 50.0879C67.2363 50.552 66.6295 51.4339 66.6295 52.3908Z" fill="#2487FF"/>
<path d="M73.4814 49.0058V54.2251L76.9748 52.4999L76.9714 47.6621C76.9708 46.8256 75.921 46.297 75.0662 46.7029C74.0881 47.167 73.4814 48.0489 73.4814 49.0058Z" fill="#2487FF"/>
<path d="M80.3333 45.6208V50.8401L83.8266 49.1154L83.8232 44.2771C83.8226 43.4406 82.7728 42.912 81.918 43.3179C80.9401 43.7822 80.3333 44.6639 80.3333 45.6208Z" fill="#2487FF"/>
<path d="M23.1259 66.59L21.4045 67.4007L31.6665 72.4952L33.3679 71.6501L23.1259 66.59Z" fill="#E0E0E2"/>
<path d="M21.4045 67.4007V69.1006L31.6636 74.1688L31.6665 72.4951L21.4045 67.4007Z" fill="#C6C5CB"/>
<path d="M21.4197 69.119L19.6964 69.9294L29.9583 75.024L31.6617 74.1791L21.4197 69.119Z" fill="#E0E0E2"/>
<path d="M19.6964 69.9294V71.6431L29.9555 76.7113L29.9583 75.0241L19.6964 69.9294Z" fill="#C6C5CB"/>
<path d="M31.6664 72.4952L31.6651 74.18L29.9583 75.0241L29.9554 76.7113L31.6617 75.8664L31.6636 75.8528V75.8688L33.3679 75.0234V71.6501L31.6664 72.4952Z" fill="#ACABB1"/>
<path d="M70.9182 24.7812V24.7702H70.9178C70.9442 22.0757 68.8945 19.3829 64.7596 17.34C56.4758 13.2476 42.8287 13.2476 34.4327 17.34C30.2318 19.3878 28.1124 22.0885 28.0819 24.7896V33.1493C28.0504 35.8469 30.1032 38.5451 34.2484 40.5928C42.5429 44.6905 56.1899 44.6905 64.5753 40.5928C68.766 38.5449 70.883 35.8469 70.9182 33.1493L70.9184 33.1468C70.9182 33.1459 70.9182 24.7826 70.9182 24.7812Z" fill="#C6C5CB"/>
<path d="M34.2482 32.2314C25.9538 28.1338 26.0368 21.433 34.4328 17.3404C42.8288 13.2478 56.4756 13.2479 64.7597 17.3404C73.0437 21.4328 72.9605 28.1338 64.5751 32.2314C56.1897 36.329 42.5425 36.3289 34.2482 32.2314Z" fill="#E0E0E2"/>
<path d="M68.2328 24.4701C68.2225 26.8445 66.3689 29.222 62.6827 31.0219C55.3479 34.6071 43.4083 34.6071 36.1523 31.0219C32.5858 29.2601 30.7906 26.95 30.7599 24.6283C30.7565 24.5873 30.7565 24.5461 30.7565 24.508C30.7565 15.6549 39.1466 8.47589 49.4964 8.47589C59.7947 8.47589 68.1539 15.5876 68.2293 24.3821C68.2328 24.4114 68.2328 24.4407 68.2328 24.4701Z" fill="#00AB95"/>
<path d="M62.5047 21.8457C62.4967 23.6761 61.0681 25.5086 58.2266 26.8959C52.5728 29.6594 43.3695 29.6594 37.7765 26.8959C35.0275 25.5379 33.6438 23.7571 33.6201 21.9676C33.6174 21.936 33.6174 21.9042 33.6174 21.8749C33.6174 15.0509 40.0846 9.51697 48.0625 9.51697C56.0008 9.51697 62.4442 14.9989 62.5022 21.7778C62.5047 21.8006 62.5047 21.8232 62.5047 21.8457Z" fill="#01CDB4"/>
<path d="M49.4998 4.5441L48.619 10.333C48.6177 10.4439 48.7022 10.555 48.8727 10.6391C49.2137 10.8077 49.7751 10.8077 50.1199 10.6391C50.2923 10.555 50.3792 10.4439 50.3808 10.333L49.4998 4.5441Z" fill="#02665A"/>
<path d="M47.9893 2.27196C47.9893 1.12358 49.0006 0.178158 50.3025 0.0497676C50.1246 0.0176699 49.9401 0 49.7506 0C48.2843 0 47.0955 1.01724 47.0955 2.27196C47.0955 3.52669 48.2843 4.54393 49.7506 4.54393C49.9401 4.54393 50.1244 4.52626 50.3025 4.49416C49.0006 4.36577 47.9893 3.42051 47.9893 2.27196Z" fill="#FED322"/>
<path d="M49.7948 0.246887L50.8485 1.50405L52.5716 1.0349L51.4999 2.28087L52.5536 3.53819L50.8375 3.05105L49.766 4.29719L49.7768 2.75018L48.0609 2.26304L49.7838 1.7939L49.7948 0.246887Z" fill="#FED322"/>
<path d="M49.4945 52.5327V55.9201L90.6113 35.6077V32.2227L49.4945 52.5327Z" fill="#C6C5CB"/>
</g>
<defs>
<filter id="filter0_d_31_597" x="-3" y="0" width="105" height="91" filterUnits="userSpaceOnUse" color-interpolation-filters="sRGB">
<feFlood flood-opacity="0" result="BackgroundImageFix"/>
<feColorMatrix in="SourceAlpha" type="matrix" values="0 0 0 0 0 0 0 0 0 0 0 0 0 0 0 0 0 0 127 0" result="hardAlpha"/>
<feOffset dy="4"/>
<feGaussianBlur stdDeviation="2"/>
<feComposite in2="hardAlpha" operator="out"/>
<feColorMatrix type="matrix" values="0 0 0 0 0 0 0 0 0 0 0 0 0 0 0 0 0 0 0.4 0"/>
<feBlend mode="normal" in2="BackgroundImageFix" result="effect1_dropShadow_31_597"/>
<feBlend mode="normal" in="SourceGraphic" in2="effect1_dropShadow_31_597" result="shape"/>
</filter>
<clipPath id="clip0_31_597">
<rect width="97" height="83" fill="white" transform="translate(1)"/>
</clipPath>
</defs>
</svg>
