<?xml version="1.0" standalone="no"?>
<!DOCTYPE svg PUBLIC "-//W3C//DTD SVG 20010904//EN"
 "http://www.w3.org/TR/2001/REC-SVG-20010904/DTD/svg10.dtd">
<svg version="1.0" xmlns="http://www.w3.org/2000/svg"
 width="512.000000pt" height="512.000000pt" viewBox="0 0 512.000000 512.000000"
 preserveAspectRatio="xMidYMid meet">

<g transform="translate(0.000000,512.000000) scale(0.100000,-0.100000)"
fill="#000000" stroke="none">
<path d="M1050 1690 c-19 -19 -20 -33 -20 -265 0 -301 -7 -285 135 -285 142 0
135 -16 135 285 0 301 7 285 -135 285 -82 0 -98 -3 -115 -20z m130 -265 c0
-140 -2 -165 -15 -165 -13 0 -15 25 -15 165 0 140 2 165 15 165 13 0 15 -25
15 -165z"/>
<path d="M3840 1690 c-19 -19 -20 -33 -20 -265 0 -301 -7 -285 135 -285 142 0
135 -16 135 285 0 301 7 285 -135 285 -82 0 -98 -3 -115 -20z m130 -265 c0
-158 -1 -165 -20 -165 -19 0 -20 7 -20 165 0 158 1 165 20 165 19 0 20 -7 20
-165z"/>
<path d="M2485 1553 c-88 -53 -203 -174 -247 -258 -47 -91 -67 -154 -81 -256
l-12 -84 -148 -3 -147 -3 0 -394 0 -395 705 0 705 0 0 395 0 395 -144 0 -144
0 -7 66 c-16 156 -77 299 -171 403 -55 60 -209 172 -235 170 -8 0 -41 -17 -74
-36z"/>
<path d="M1047 792 c-14 -16 -17 -44 -17 -179 0 -200 -5 -193 137 -193 137 0
133 -6 133 191 0 204 3 199 -134 199 -87 0 -105 -3 -119 -18z m133 -177 c0
-69 -3 -85 -15 -85 -12 0 -15 16 -15 85 0 69 3 85 15 85 12 0 15 -16 15 -85z"/>
<path d="M3837 792 c-24 -27 -25 -332 -1 -356 12 -13 38 -16 119 -16 138 0
135 -4 135 195 0 199 3 195 -134 195 -87 0 -105 -3 -119 -18z m133 -178 c0
-76 -2 -85 -17 -82 -15 3 -19 16 -21 72 -3 78 1 96 23 96 12 0 15 -15 15 -86z"/>
</g>
</svg>
