<svg width="35" height="35" viewBox="0 0 35 35" fill="none" xmlns="http://www.w3.org/2000/svg">
<path d="M24.7916 30.2604H10.2083C9.14466 30.2604 8.1246 29.8379 7.3725 29.0857C6.6204 28.3337 6.19788 27.3136 6.19788 26.25V8.75001C6.19788 7.68637 6.6204 6.66631 7.3725 5.91422C8.1246 5.16212 9.14466 4.73959 10.2083 4.73959H21.1458C21.4357 4.73986 21.7138 4.85525 21.9187 5.06043L28.4812 11.6667C28.6864 11.8716 28.8017 12.1496 28.802 12.4396V26.25C28.802 27.3136 28.3796 28.3337 27.6274 29.0857C26.8753 29.8379 25.8552 30.2604 24.7916 30.2604ZM10.2083 6.92709C9.72483 6.92709 9.26116 7.11916 8.9193 7.46102C8.57744 7.80288 8.38538 8.26654 8.38538 8.75001V26.25C8.38538 26.7334 8.57744 27.1972 8.9193 27.539C9.26116 27.8809 9.72483 28.0729 10.2083 28.0729H24.7916C25.2751 28.0729 25.7388 27.8809 26.0806 27.539C26.4225 27.1972 26.6145 26.7334 26.6145 26.25V12.8479L20.6937 6.92709H10.2083Z" fill="black"/>
<path d="M24.427 29.1667H22.2395V20.0521H12.7604V29.1667H10.5729V19.6875C10.5729 19.2041 10.7649 18.7403 11.1068 18.3985C11.4487 18.0567 11.9123 17.8646 12.3958 17.8646H22.6041C23.0876 17.8646 23.5513 18.0567 23.8931 18.3985C24.235 18.7403 24.427 19.2041 24.427 19.6875V29.1667Z" fill="black"/>
<path d="M18.1854 12.7604H12.4396C12.1925 12.7585 11.9483 12.708 11.7208 12.6117C11.4933 12.5154 11.2869 12.3752 11.1136 12.1991C10.9403 12.0231 10.8033 11.8146 10.7105 11.5856C10.6178 11.3566 10.571 11.1116 10.5729 10.8646V5.83334H12.7604V10.5729H17.8646V5.83334H20.0521V10.8646C20.054 11.1116 20.0073 11.3566 19.9146 11.5856C19.8217 11.8146 19.6847 12.0231 19.5115 12.1991C19.3381 12.3752 19.1317 12.5154 18.9042 12.6117C18.6767 12.708 18.4325 12.7585 18.1854 12.7604Z" fill="black"/>
</svg>
