<svg width="24" height="25" viewBox="0 0 24 25" fill="none" xmlns="http://www.w3.org/2000/svg">
<g filter="url(#filter0_d_27_1900)">
<path fill-rule="evenodd" clip-rule="evenodd" d="M11.7982 0.405151V1.34908C15.5927 1.34908 18.6789 4.52444 18.6789 8.42852C18.6789 12.3326 15.5927 15.508 11.7982 15.508C8.00367 15.508 4.91743 12.3326 4.91743 8.42852C4.91743 6.19613 5.94587 4.11667 7.66973 2.78101V6.0687H8.58715V1.34908H4V2.293H6.78533C5.0321 3.8099 4 6.04417 4 8.42852C4 12.8527 7.49817 16.4519 11.7982 16.4519C16.0982 16.4519 19.5963 12.8527 19.5963 8.42852C19.5963 4.00434 16.0982 0.405151 11.7982 0.405151Z" fill="white"/>
</g>
<defs>
<filter id="filter0_d_27_1900" x="0" y="0.405151" width="23.5963" height="24.0468" filterUnits="userSpaceOnUse" color-interpolation-filters="sRGB">
<feFlood flood-opacity="0" result="BackgroundImageFix"/>
<feColorMatrix in="SourceAlpha" type="matrix" values="0 0 0 0 0 0 0 0 0 0 0 0 0 0 0 0 0 0 127 0" result="hardAlpha"/>
<feOffset dy="4"/>
<feGaussianBlur stdDeviation="2"/>
<feComposite in2="hardAlpha" operator="out"/>
<feColorMatrix type="matrix" values="0 0 0 0 0 0 0 0 0 0 0 0 0 0 0 0 0 0 0.25 0"/>
<feBlend mode="normal" in2="BackgroundImageFix" result="effect1_dropShadow_27_1900"/>
<feBlend mode="normal" in="SourceGraphic" in2="effect1_dropShadow_27_1900" result="shape"/>
</filter>
</defs>
</svg>
