<?xml version="1.0" standalone="no"?>
<!DOCTYPE svg PUBLIC "-//W3C//DTD SVG 20010904//EN"
 "http://www.w3.org/TR/2001/REC-SVG-20010904/DTD/svg10.dtd">
<svg version="1.0" xmlns="http://www.w3.org/2000/svg"
 width="512.000000pt" height="512.000000pt" viewBox="0 0 512.000000 512.000000"
 preserveAspectRatio="xMidYMid meet">

<g transform="translate(0.000000,512.000000) scale(0.100000,-0.100000)"
fill="#000000" stroke="none">
<path d="M3498 5100 c-20 -11 -47 -36 -60 -57 -23 -38 -23 -40 -26 -405 l-3
-366 -117 -7 c-329 -18 -602 -88 -872 -226 -637 -324 -1058 -941 -1130 -1658
-15 -156 -13 -534 4 -574 39 -95 168 -127 245 -61 16 13 48 59 72 102 253 464
678 779 1204 892 81 18 146 23 347 27 l247 5 3 -368 c3 -367 3 -369 27 -407
45 -72 148 -98 216 -53 46 30 1437 1481 1451 1513 18 41 18 85 0 126 -20 47
-1430 1506 -1472 1523 -45 19 -92 17 -136 -6z m801 -1123 c237 -247 431 -452
431 -457 0 -4 -224 -241 -497 -525 l-498 -517 -5 259 c-7 373 17 353 -418 353
-338 0 -460 -11 -662 -61 -350 -87 -664 -261 -930 -516 l-103 -98 7 55 c4 30
20 106 37 168 146 553 556 1002 1098 1202 194 71 363 99 656 108 324 10 315 0
315 368 l0 249 69 -70 c38 -39 263 -272 500 -518z"/>
<path d="M504 4260 c-104 -15 -208 -62 -296 -134 -69 -56 -150 -174 -180 -264
l-23 -67 -3 -1630 c-3 -1815 -7 -1703 66 -1847 45 -90 151 -199 239 -246 34
-18 96 -41 139 -52 76 -20 118 -20 2114 -20 1996 0 2038 0 2114 20 43 11 105
34 139 52 88 47 194 156 239 246 71 140 69 106 66 1179 -3 953 -3 962 -24 989
-39 53 -71 69 -134 69 -63 0 -95 -16 -134 -69 -21 -27 -21 -37 -26 -999 -5
-941 -6 -973 -25 -1012 -25 -50 -80 -105 -130 -130 -39 -20 -72 -20 -2085 -20
-2013 0 -2046 0 -2085 20 -50 25 -105 80 -130 130 -20 39 -20 69 -20 1660 l0
1620 22 40 c28 52 88 109 138 132 36 16 84 19 475 23 430 5 435 5 466 27 64
46 84 149 41 214 -12 19 -42 44 -67 57 -44 22 -48 22 -445 21 -220 -1 -423 -5
-451 -9z"/>
</g>
</svg>
