<svg width="28" height="28" viewBox="0 0 28 28" fill="none" xmlns="http://www.w3.org/2000/svg">
<path fill-rule="evenodd" clip-rule="evenodd" d="M8.45834 25.6667C8.45834 25.1834 8.8501 24.7917 9.33334 24.7917H18.6667C19.1499 24.7917 19.5417 25.1834 19.5417 25.6667C19.5417 26.1499 19.1499 26.5417 18.6667 26.5417H9.33334C8.8501 26.5417 8.45834 26.1499 8.45834 25.6667Z" fill="white"/>
<path fill-rule="evenodd" clip-rule="evenodd" d="M14 1.45831C14.4832 1.45831 14.875 1.85007 14.875 2.33331V3.49998C14.875 3.98322 14.4832 4.37498 14 4.37498C13.5168 4.37498 13.125 3.98322 13.125 3.49998V2.33331C13.125 1.85007 13.5168 1.45831 14 1.45831ZM1.45834 14C1.45834 13.5167 1.8501 13.125 2.33334 13.125H3.50001C3.98325 13.125 4.37501 13.5167 4.37501 14C4.37501 14.4832 3.98325 14.875 3.50001 14.875H2.33334C1.8501 14.875 1.45834 14.4832 1.45834 14ZM23.625 14C23.625 13.5167 24.0168 13.125 24.5 13.125H25.6667C26.1499 13.125 26.5417 13.5167 26.5417 14C26.5417 14.4832 26.1499 14.875 25.6667 14.875H24.5C24.0168 14.875 23.625 14.4832 23.625 14Z" fill="white"/>
<path fill-rule="evenodd" clip-rule="evenodd" d="M7.09646 17.7917H2.33334C1.8501 17.7917 1.45834 18.1834 1.45834 18.6667C1.45834 19.1499 1.8501 19.5417 2.33334 19.5417H25.6667C26.1499 19.5417 26.5417 19.1499 26.5417 18.6667C26.5417 18.1834 26.1499 17.7917 25.6667 17.7917H20.9035H7.09646Z" fill="white"/>
<path opacity="0.5" d="M4.95834 22.1667C4.95834 21.6834 5.3501 21.2917 5.83334 21.2917H22.1667C22.6499 21.2917 23.0417 21.6834 23.0417 22.1667C23.0417 22.6499 22.6499 23.0417 22.1667 23.0417H5.83334C5.3501 23.0417 4.95834 22.6499 4.95834 22.1667Z" fill="white"/>
<g opacity="0.5">
<path d="M5.13143 5.13143C5.47314 4.78973 6.02716 4.78973 6.36887 5.13143L6.82718 5.58975C7.16889 5.93145 7.16889 6.48546 6.82718 6.82718C6.48546 7.16889 5.93145 7.16889 5.58975 6.82718L5.13143 6.36887C4.78973 6.02716 4.78973 5.47314 5.13143 5.13143Z" fill="white"/>
<path d="M22.8677 5.13174C23.2094 5.47344 23.2094 6.02747 22.8677 6.36917L22.4095 6.82749C22.0677 7.16919 21.5137 7.16919 21.172 6.82749C20.8303 6.48577 20.8303 5.93175 21.172 5.59005L21.6302 5.13174C21.972 4.79003 22.526 4.79003 22.8677 5.13174Z" fill="white"/>
</g>
<path opacity="0.5" d="M6.125 14C6.125 15.3741 6.47745 16.6668 7.09645 17.7917H20.9035C21.5225 16.6668 21.875 15.3741 21.875 14C21.875 9.65076 18.3492 6.125 14 6.125C9.65076 6.125 6.125 9.65076 6.125 14Z" fill="white"/>
</svg>
