<?xml version="1.0" encoding="UTF-8"?>
<svg version="1.1" xmlns="http://www.w3.org/2000/svg" width="128" height="128">
<path d="M0 0 C8.49718935 4.71051681 8.49718935 4.71051681 17.9375 5.5625 C18.39125 5.088125 18.845 4.61375 19.3125 4.125 C23.60889111 -0.0061453 32.28486442 1.46013839 37.9375 1.5625 C39.56177702 15.21904272 40.45706393 28.81929409 40.9375 42.5625 C37.82533541 44.11858229 34.5367342 43.70572832 31.125 43.6875 C30.41279297 43.69136719 29.70058594 43.69523437 28.96679688 43.69921875 C25.97064018 43.69367544 23.19880636 43.6234204 20.2734375 42.94140625 C17.16462376 42.43713379 15.28572694 43.2293314 12.375 44.375 C10.98087891 44.91060547 10.98087891 44.91060547 9.55859375 45.45703125 C7.29727925 46.41076002 5.1139682 47.43073653 2.9375 48.5625 C3.8455162 49.69449353 4.76433826 50.81782363 5.6875 51.9375 C6.19796875 52.56398437 6.7084375 53.19046875 7.234375 53.8359375 C9.02490102 55.65110378 10.66364363 56.46378789 12.9375 57.5625 C14.27338915 60.23427831 13.95267946 62.61050741 13.89453125 65.5390625 C13.8637178 67.69794395 13.8637178 67.69794395 14.625 70.25 C14.9375 72.5625 14.9375 72.5625 13.8125 75.3125 C11.9375 77.5625 11.9375 77.5625 9.25 78.375 C8.486875 78.436875 7.72375 78.49875 6.9375 78.5625 C6.751875 79.5215625 6.751875 79.5215625 6.5625 80.5 C6.35625 81.180625 6.15 81.86125 5.9375 82.5625 C3.22870665 83.91689668 0.92816732 83.62751451 -2.0625 83.5625 C-1.61197266 85.22539062 -1.61197266 85.22539062 -1.15234375 86.921875 C-0.76772947 88.38528543 -0.38364243 89.8488345 0 91.3125 C0.19916016 92.04210937 0.39832031 92.77171875 0.60351562 93.5234375 C1.62529294 97.46713943 1.94667431 99.52580276 0.9375 103.5625 C-4.6725 103.5625 -10.2825 103.5625 -16.0625 103.5625 C-16.0625 98.26342404 -15.88212621 95.01861387 -14.5625 90.125 C-14.2840625 89.07441406 -14.005625 88.02382812 -13.71875 86.94140625 C-13.5021875 86.15636719 -13.285625 85.37132813 -13.0625 84.5625 C-14.17625 84.60375 -15.29 84.645 -16.4375 84.6875 C-20.0625 84.5625 -20.0625 84.5625 -22.0625 82.5625 C-24.05821323 81.88310826 -26.05844773 81.21688441 -28.0625 80.5625 C-29.0525 79.9025 -30.0425 79.2425 -31.0625 78.5625 C-32.09375 78.2325 -33.125 77.9025 -34.1875 77.5625 C-37.0625 76.5625 -37.0625 76.5625 -38.0625 74.5625 C-40.05821323 73.88310826 -42.05844773 73.21688441 -44.0625 72.5625 C-44.7225 71.9025 -45.3825 71.2425 -46.0625 70.5625 C-47.196875 70.088125 -48.33125 69.61375 -49.5 69.125 C-52.67343322 67.73314333 -53.88615947 67.03561424 -56.0625 64.5625 C-56.949375 63.881875 -57.83625 63.20125 -58.75 62.5 C-59.513125 61.860625 -60.27625 61.22125 -61.0625 60.5625 C-61.0625 59.9025 -61.0625 59.2425 -61.0625 58.5625 C-61.84625 58.315 -62.63 58.0675 -63.4375 57.8125 C-66.0625 56.5625 -66.0625 56.5625 -67.375 54.625 C-68.0625 52.5625 -68.0625 52.5625 -68.0625 49.5625 C-69.0525 49.2325 -70.0425 48.9025 -71.0625 48.5625 C-71.18625 47.469375 -71.31 46.37625 -71.4375 45.25 C-71.81714801 41.48868198 -71.81714801 41.48868198 -74.0625 38.5625 C-74.27564985 35.1521024 -74.147394 32.81718201 -73.0625 29.5625 C-73.0934375 28.263125 -73.0934375 28.263125 -73.125 26.9375 C-73.03845378 22.26400411 -72.88079296 16.49795101 -69.546875 12.94921875 C-69.05703125 12.49160156 -68.5671875 12.03398437 -68.0625 11.5625 C-67.5984375 10.325 -67.5984375 10.325 -67.125 9.0625 C-65.48751487 5.2095938 -63.1497452 4.0176259 -59.375 2.4375 C-58.611875 2.14875 -57.84875 1.86 -57.0625 1.5625 C-56.7325 1.2325 -56.4025 0.9025 -56.0625 0.5625 C-53.59086314 0.43567377 -51.15959389 0.37729749 -48.6875 0.375 C-48.00171875 0.36275391 -47.3159375 0.35050781 -46.609375 0.33789062 C-42.86953203 0.32697669 -41.2525263 0.4358158 -38.0625 2.5625 C-38.0625 3.2225 -38.0625 3.8825 -38.0625 4.5625 C-37.37212646 4.28462646 -36.68175293 4.00675293 -35.97045898 3.72045898 C-32.82007731 2.46342315 -29.66041109 1.23159042 -26.5 0 C-24.87094727 -0.65645508 -24.87094727 -0.65645508 -23.20898438 -1.32617188 C-13.90236322 -4.91869736 -8.92267081 -4.75282908 0 0 Z M-40.0625 12.5625 C-39.7325 13.5525 -39.4025 14.5425 -39.0625 15.5625 C-39.0625 14.5725 -39.0625 13.5825 -39.0625 12.5625 C-39.3925 12.5625 -39.7225 12.5625 -40.0625 12.5625 Z M-58.0625 16.5625 C-57.7325 17.8825 -57.4025 19.2025 -57.0625 20.5625 C-55.9796875 19.69625 -55.9796875 19.69625 -54.875 18.8125 C-52.27083333 16.72916667 -49.66666667 14.64583333 -47.0625 12.5625 C-51.51601799 12.5625 -54.38990617 14.11410412 -58.0625 16.5625 Z M-38.0625 15.5625 C-38.0625 16.2225 -38.0625 16.8825 -38.0625 17.5625 C-37.0725 17.2325 -36.0825 16.9025 -35.0625 16.5625 C-36.0525 16.2325 -37.0425 15.9025 -38.0625 15.5625 Z M-59.0625 20.5625 C-61.35064825 29.20434562 -62.77003349 36.70094432 -58.203125 44.7734375 C-55.55857445 48.92139693 -53.47730356 51.43121552 -49.0625 53.5625 C-48.7325 54.5525 -48.4025 55.5425 -48.0625 56.5625 C-46.07526732 57.26631157 -44.07472047 57.9336811 -42.0625 58.5625 C-41.7325 59.2225 -41.4025 59.8825 -41.0625 60.5625 C-39.06678677 61.24189174 -37.06655227 61.90811559 -35.0625 62.5625 C-34.4025 63.2225 -33.7425 63.8825 -33.0625 64.5625 C-32.051875 64.8925 -31.04125 65.2225 -30 65.5625 C-27.0625 66.5625 -27.0625 66.5625 -26.0625 68.5625 C-24.39049012 69.06410296 -22.71489688 69.55678651 -21.0234375 69.98828125 C-19.0625 70.5625 -19.0625 70.5625 -15.5625 72.1875 C-11.63781663 73.7293399 -9.24098883 74.0848111 -5.0625 73.5625 C-2.5350836 72.4199693 -0.39815197 71.08782374 1.9375 69.5625 C1.4425 66.0975 1.4425 66.0975 0.9375 62.5625 C0.15375 62.315 -0.63 62.0675 -1.4375 61.8125 C-4.0625 60.5625 -4.0625 60.5625 -5.0625 58.5 C-5.5575 57.5409375 -5.5575 57.5409375 -6.0625 56.5625 C-8.61769921 55.75078772 -8.61769921 55.75078772 -11.0625 55.5625 C-11.0625 54.9025 -11.0625 54.2425 -11.0625 53.5625 C-12.16207031 53.706875 -13.26164062 53.85125 -14.39453125 54 C-34.14656418 56.52101258 -34.14656418 56.52101258 -39.0625 55.5625 C-40.8125 53.1875 -40.8125 53.1875 -42.0625 50.5625 C-45.64246259 49.19349646 -45.64246259 49.19349646 -49.0625 48.5625 C-49.3925 46.9125 -49.7225 45.2625 -50.0625 43.5625 C-51.01125 43.294375 -51.96 43.02625 -52.9375 42.75 C-56.0625 41.5625 -56.0625 41.5625 -58.0625 38.5625 C-57.53058511 32.49867021 -57.53058511 32.49867021 -56.0625 29.5625 C-56.3816623 27.33625407 -56.3816623 27.33625407 -57 24.9375 C-57.19464844 24.12023437 -57.38929687 23.30296875 -57.58984375 22.4609375 C-57.74582031 21.83445312 -57.90179688 21.20796875 -58.0625 20.5625 C-58.3925 20.5625 -58.7225 20.5625 -59.0625 20.5625 Z " fill="#100A02" transform="translate(80.0625,14.4375)"/>
<path d="M0 0 C1.97704791 1.00237458 3.90965809 2.06484644 5.84277344 3.14941406 C12.52693541 6.72134077 18.5834817 8.69605863 26.21777344 9.27441406 C27.54778373 18.25198357 27.30565383 27.22273372 27.21777344 36.27441406 C26.53972656 36.43296875 25.86167969 36.59152344 25.16308594 36.75488281 C19.08669698 38.27818808 13.92697277 40.22959572 8.50683594 43.38378906 C5.62963382 44.50324654 4.11253501 44.2702511 1.21777344 43.27441406 C-0.46972656 40.77441406 -0.46972656 40.77441406 -1.78222656 38.27441406 C-2.44222656 37.94441406 -3.10222656 37.61441406 -3.78222656 37.27441406 C-5.98084917 32.6939503 -7.40800366 28.17008315 -8.78222656 23.27441406 C-9.33513028 21.83319584 -9.89777338 20.39567906 -10.46972656 18.96191406 C-11.11941406 17.13660156 -11.11941406 17.13660156 -11.78222656 15.27441406 C-11.45222656 14.61441406 -11.12222656 13.95441406 -10.78222656 13.27441406 C-10.2859375 13.88929687 -9.78964844 14.50417969 -9.27832031 15.13769531 C-2.72010779 22.94035044 2.09267615 25.38624763 12.21777344 26.27441406 C11.72277344 24.78941406 11.72277344 24.78941406 11.21777344 23.27441406 C9.37002956 22.72568749 9.37002956 22.72568749 7.15527344 22.52441406 C1.47871961 21.46346071 -1.92206506 18.43079899 -5.78222656 14.27441406 C-6.44222656 13.28441406 -7.10222656 12.29441406 -7.78222656 11.27441406 C-11.49862795 11.00413033 -14.23942756 11.09348106 -17.78222656 12.27441406 C-24.26156541 12.6215215 -24.26156541 12.6215215 -27.78222656 10.27441406 C-27.78222656 9.28441406 -27.78222656 8.29441406 -27.78222656 7.27441406 C-16.55175781 2.78222656 -16.55175781 2.78222656 -14.57763672 2.00195312 C-13.09173978 1.39983552 -11.62692599 0.74598062 -10.16894531 0.07910156 C-6.57841748 -1.13145283 -3.58516962 -1.45960604 0 0 Z " fill="#F2C79C" transform="translate(72.7822265625,15.7255859375)"/>
<path d="M0 0 C1.4086815 0.71949495 2.81097903 1.4516091 4.20703125 2.1953125 C4.91794922 2.56011719 5.62886719 2.92492187 6.36132812 3.30078125 C9.37002565 4.8574921 12.19512818 6.43737712 15.01953125 8.3203125 C14.28243341 9.93044835 13.52927268 11.53323641 12.76953125 13.1328125 C12.14304687 14.47279297 12.14304687 14.47279297 11.50390625 15.83984375 C9.93092189 18.46838341 8.64142579 19.7686835 6.01953125 21.3203125 C0.51665611 21.57044319 -2.40077367 18.61189523 -6.24609375 15.109375 C-7.98046875 13.3203125 -7.98046875 13.3203125 -9.98046875 10.3203125 C-13.69687014 10.05002876 -16.43766975 10.1393795 -19.98046875 11.3203125 C-26.45980759 11.66741994 -26.45980759 11.66741994 -29.98046875 9.3203125 C-29.98046875 8.3303125 -29.98046875 7.3403125 -29.98046875 6.3203125 C-18.75 1.828125 -18.75 1.828125 -16.77587891 1.04785156 C-15.28998196 0.44573395 -13.82516818 -0.20812094 -12.3671875 -0.875 C-7.74714898 -2.43265619 -4.34952776 -2.02115987 0 0 Z " fill="#E7BD84" transform="translate(74.98046875,16.6796875)"/>
<path d="M0 0 C3.63 0 7.26 0 11 0 C12.36326269 10.7356937 13.31366039 21.16129087 13 32 C9.2644843 33.03901761 5.8822667 33.14650063 2 33 C-0.00161984 30.99838016 0.58265771 27.1240545 0.4375 24.375 C0.3950415 23.61968994 0.35258301 22.86437988 0.30883789 22.08618164 C-0.07309796 14.72027605 -0.09660435 7.37413238 0 0 Z " fill="#439E72" transform="translate(103,21)"/>
<path d="M0 0 C0.015625 2.16796875 0.015625 2.16796875 -1 5 C-3.53373153 7.14374776 -6.35853361 8.69949189 -9.25 10.3125 C-10.01441406 10.76689453 -10.77882813 11.22128906 -11.56640625 11.68945312 C-18.50527416 15.67420888 -18.50527416 15.67420888 -23 15 C-23.25097656 12.68310547 -23.25097656 12.68310547 -23 10 C-21.31933594 8.40673828 -21.31933594 8.40673828 -18.984375 7.0703125 C-18.14519531 6.585625 -17.30601563 6.1009375 -16.44140625 5.6015625 C-15.55324219 5.11429688 -14.66507813 4.62703125 -13.75 4.125 C-12.87730469 3.61453125 -12.00460938 3.1040625 -11.10546875 2.578125 C-3.95639208 -1.46028472 -3.95639208 -1.46028472 0 0 Z " fill="#EADAA6" transform="translate(49,38)"/>
<path d="M0 0 C1.98 0 3.96 0 6 0 C7.3300103 8.97756951 7.08788039 17.94831966 7 27 C6.32195312 27.15855469 5.64390625 27.31710938 4.9453125 27.48046875 C-1.13107645 29.00377401 -6.29080067 30.95518166 -11.7109375 34.109375 C-14.53453028 35.20797424 -16.1336046 34.83054566 -19 34 C-16.22767938 31.81766981 -13.46407053 30.08339775 -10.3125 28.5 C-9.52488281 28.0978125 -8.73726562 27.695625 -7.92578125 27.28125 C-4.05684167 25.58697472 -0.00691103 24.33563701 4 23 C4 15.74 4 8.48 4 1 C2.68 0.67 1.36 0.34 0 0 Z " fill="#D8B17C" transform="translate(93,25)"/>
<path d="M0 0 C0 1.32 0 2.64 0 4 C-2.44921875 5.95703125 -2.44921875 5.95703125 -5.6875 7.8125 C-6.74324219 8.43769531 -7.79898438 9.06289063 -8.88671875 9.70703125 C-12.23949501 11.09946405 -13.61397324 11.12448755 -17 10 C-16.64996937 7.16905053 -16.23218382 6.19401662 -14.00390625 4.33203125 C-12.79541016 3.57986328 -12.79541016 3.57986328 -11.5625 2.8125 C-10.75941406 2.30332031 -9.95632812 1.79414062 -9.12890625 1.26953125 C-5.47619152 -0.90869313 -4.15510195 -0.98410309 0 0 Z " fill="#EACB84" transform="translate(51,49)"/>
<path d="M0 0 C0.33 0 0.66 0 1 0 C1.309375 1.134375 1.61875 2.26875 1.9375 3.4375 C2.62924531 6.78775099 2.62924531 6.78775099 4 8 C4.103125 9.134375 4.20625 10.26875 4.3125 11.4375 C4.6528125 13.2009375 4.6528125 13.2009375 5 15 C6.32467746 15.6837045 7.65863633 16.34964186 9 17 C10.25 20.625 10.25 20.625 11 24 C7.04 24.495 7.04 24.495 3 25 C3.04125 24.071875 3.0825 23.14375 3.125 22.1875 C3.27136339 18.84190281 3.27136339 18.84190281 1 16 C1 13.66666667 1 11.33333333 1 9 C0.34490497 6.99617991 -0.31974363 4.99541868 -1 3 C-0.67 2.01 -0.34 1.02 0 0 Z " fill="#D3AD7C" transform="translate(53,40)"/>
<path d="M0 0 C0.57234375 0.21527344 1.1446875 0.43054687 1.734375 0.65234375 C1.734375 1.97234375 1.734375 3.29234375 1.734375 4.65234375 C-1.23796801 7.14081697 -3.24062018 8.5632129 -7.140625 8.90234375 C-7.841875 8.81984375 -8.543125 8.73734375 -9.265625 8.65234375 C-9.595625 7.33234375 -9.925625 6.01234375 -10.265625 4.65234375 C-9.02618224 3.78292881 -7.77355441 2.93228918 -6.515625 2.08984375 C-5.81953125 1.61417969 -5.1234375 1.13851562 -4.40625 0.6484375 C-2.265625 -0.34765625 -2.265625 -0.34765625 0 0 Z " fill="#E4E0C3" transform="translate(36.265625,32.34765625)"/>
<path d="M0 0 C0.8353125 0.37125 0.8353125 0.37125 1.6875 0.75 C2.0175 2.07 2.3475 3.39 2.6875 4.75 C-2.72788462 8.81153846 -2.72788462 8.81153846 -5.6875 8.5 C-6.22375 8.2525 -6.76 8.005 -7.3125 7.75 C-7.3125 3.75 -7.3125 3.75 -5.0625 1.4375 C-2.3125 -0.25 -2.3125 -0.25 0 0 Z " fill="#E2BA7F" transform="translate(50.3125,58.25)"/>
<path d="M0 0 C0.66 0 1.32 0 2 0 C3.19287411 3.87684087 4 6.91621923 4 11 C1.69 11 -0.62 11 -3 11 C-2.69217504 9.35328588 -2.37860766 7.70764424 -2.0625 6.0625 C-1.88847656 5.14597656 -1.71445313 4.22945313 -1.53515625 3.28515625 C-1 1 -1 1 0 0 Z " fill="#784700" transform="translate(72,102)"/>
<path d="M0 0 C0.33 0 0.66 0 1 0 C1.309375 1.134375 1.61875 2.26875 1.9375 3.4375 C2.62924531 6.78775099 2.62924531 6.78775099 4 8 C4.04080783 9.99958364 4.04254356 12.00045254 4 14 C3.01 14.33 2.02 14.66 1 15 C1.04125 14.13375 1.0825 13.2675 1.125 12.375 C1.15727404 8.97439725 1.15727404 8.97439725 -0.0625 5.8125 C-1 3 -1 3 0 0 Z " fill="#9E815B" transform="translate(53,40)"/>
<path d="M0 0 C1.32 0.33 2.64 0.66 4 1 C3.67 2.65 3.34 4.3 3 6 C2.01 6 1.02 6 0 6 C0 4.02 0 2.04 0 0 Z " fill="#765300" transform="translate(71,92)"/>
<path d="M0 0 C1.32 0.33 2.64 0.66 4 1 C3.67 2.32 3.34 3.64 3 5 C2.01 5 1.02 5 0 5 C0 3.35 0 1.7 0 0 Z " fill="#894C00" transform="translate(61,49)"/>
<path d="M0 0 C1.98 0.495 1.98 0.495 4 1 C4 1.99 4 2.98 4 4 C2.35 4 0.7 4 -1 4 C-0.67 2.68 -0.34 1.36 0 0 Z " fill="#974C00" transform="translate(26,19)"/>
<path d="M0 0 C0.99 0 1.98 0 3 0 C3 1.65 3 3.3 3 5 C2.01 5.33 1.02 5.66 0 6 C0 4.02 0 2.04 0 0 Z " fill="#EFC598" transform="translate(58,57)"/>
<path d="M0 0 C0.99 0.33 1.98 0.66 3 1 C3 2.32 3 3.64 3 5 C1.68 4.67 0.36 4.34 -1 4 C-0.67 2.68 -0.34 1.36 0 0 Z " fill="#A05100" transform="translate(35,19)"/>
</svg>
