<svg width="31" height="31" viewBox="0 0 31 31" fill="none" xmlns="http://www.w3.org/2000/svg">
<path d="M21.9584 15.5C21.9584 19.0668 19.0668 21.9584 15.5 21.9584C11.9332 21.9584 9.04169 19.0668 9.04169 15.5C9.04169 11.9332 11.9332 9.04169 15.5 9.04169C19.0668 9.04169 21.9584 11.9332 21.9584 15.5Z" fill="#F7B239"/>
<path fill-rule="evenodd" clip-rule="evenodd" d="M15.5 1.61459C16.035 1.61459 16.4688 2.04832 16.4688 2.58334V5.16668C16.4688 5.7017 16.035 6.13543 15.5 6.13543C14.965 6.13543 14.5313 5.7017 14.5313 5.16668V2.58334C14.5313 2.04832 14.965 1.61459 15.5 1.61459ZM4.73868 4.79996C5.0997 4.4051 5.71247 4.37766 6.10733 4.73868L8.97743 7.36282C9.37229 7.72384 9.39973 8.33659 9.03871 8.73146C8.67768 9.12632 8.06492 9.15375 7.67006 8.79273L4.79996 6.16861C4.4051 5.80759 4.37766 5.19482 4.73868 4.79996ZM26.2614 4.79996C26.6224 5.19482 26.5949 5.80759 26.2 6.16861L23.33 8.79273C22.9351 9.15375 22.3223 9.12632 21.9613 8.73146C21.6003 8.33659 21.6277 7.72384 22.0225 7.36282L24.8927 4.73868C25.2876 4.37766 25.9002 4.4051 26.2614 4.79996ZM1.61459 15.5C1.61459 14.965 2.04832 14.5313 2.58334 14.5313H5.16668C5.7017 14.5313 6.13543 14.965 6.13543 15.5C6.13543 16.035 5.7017 16.4688 5.16668 16.4688H2.58334C2.04832 16.4688 1.61459 16.035 1.61459 15.5ZM24.8646 15.5C24.8646 14.965 25.2983 14.5313 25.8333 14.5313H28.4167C28.9517 14.5313 29.3854 14.965 29.3854 15.5C29.3854 16.035 28.9517 16.4688 28.4167 16.4688H25.8333C25.2983 16.4688 24.8646 16.035 24.8646 15.5ZM21.9913 21.9909C22.3696 21.6126 22.983 21.6126 23.3614 21.9909L26.2314 24.8614C26.6098 25.2397 26.6096 25.8531 26.2313 26.2314C25.853 26.6098 25.2396 26.6096 24.8614 26.2313L21.9913 23.3608C21.613 22.9825 21.613 22.3692 21.9913 21.9909ZM9.00896 21.991C9.38728 22.3693 9.38728 22.9828 9.00896 23.3611L6.13858 26.2314C5.76026 26.6098 5.14689 26.6098 4.76856 26.2314C4.39024 25.8531 4.39024 25.2397 4.76856 24.8615L7.63894 21.991C8.01726 21.6127 8.63063 21.6127 9.00896 21.991ZM15.5 24.8646C16.035 24.8646 16.4688 25.2983 16.4688 25.8333V28.4167C16.4688 28.9517 16.035 29.3854 15.5 29.3854C14.965 29.3854 14.5313 28.9517 14.5313 28.4167V25.8333C14.5313 25.2983 14.965 24.8646 15.5 24.8646Z" fill="#F7B239"/>
</svg>
